<svg xmlns="http://www.w3.org/2000/svg" id="Calque_2" viewBox="0 0 483.29 80.62"><defs><style>.cls-1{fill:#fff;stroke-width:0px;}</style></defs><g id="Calque_1-2"><path class="cls-1" d="m10.96,26.51c.76.08,1.51.33,2.3.11,0-.23.06-.46-.01-.65-.38-.91-.74-1.82-1.3-2.64-.08-.11-.18-.18-.32-.22-.68-.2-1.54-.83-1.86-1.35-.12-.21-.09-.39.08-.57.38.09.76.18,1.14.28.05-.21,0-.35-.06-.51-.31-.75-7.02-16.35-7.19-16.95.32,0,.59,0,.85,0,1.11,0,28.95-.24,29.24-.39.15-.37.28-.8.7-1.05.41.25.54.69.69,1.13,10.04,0,20.05,0,30.06,0,.02,0,.04.02.06.04.02.02.04.04.06.05,0,.27-7.19,17.2-7.27,17.37-.1.21.21.37.13.51-.66.46-1.4.39-2.01.74-.2.12-.46.06-.7.16-.21.1-.45-.09-.48-.29-.03-.21.1-.26.28-.3.26-.05.28-.25.15-.43-.15-.2-.06-.31.05-.49.26-.44.66-.67,1.08-.91.4-.22.76-.45.9-.96.08-.29.36-.52.54-.78.37-.56.92-1.03.96-1.77-.17-.24-.38-.24-.51,0-.22.39-.53.66-.82.92-.26.03-.29-.28-.5-.26-.1.05-.26.08-.28.14-.12.46-.54.72-.69,1.15-.12.32-.35.56-.6.74-.36.24-.68.52-.97.83-.12.13-.26.19-.43.17-.26-.03-.54.06-.79-.09-.21-.13-.42-.09-.58.1-.12.14-.26.19-.5.12.04-.27-.3-.36-.35-.66.32-.33.54-.72.48-1.21-.02-.14,0-.26.11-.37.33-.35.45-.85.83-1.17.2-.16.33-.42.46-.65.05-.09-.07-.18-.22-.25-.31.31-.68.59-.93.95-.24.34-.65.63-.72,1-.08.43-.34.65-.59.92-.14.16-.33.3-.42.49-.14.31-.39.42-.68.5-.04.01-.07.07-.11.12-.09.2.07.47-.14.67-.21-.1-.42-.15-.63-.04-.15-.79-.06-1.56.19-2.25.18-.5.27-.98.24-1.48-.04-.68.08-1.32.28-1.96.02-.08.04-.16-.1-.24-.45.68-.37,1.59-.86,2.3-.35-.66.19-1.2.08-1.81-.24.37-.62.48-.96.66-.12.06-.23.13-.34.2-.44.3-.71.7-.48,1.22.09.21-.08.35.04.55.33-.12.69-.22,1.06-.18.34.04.5.22.4.53-.05.15-.12.3-.11.46.02.71-.39,1.32-.54,1.99-.04.2-.24.28-.45.13-.06-.05-.1-.03-.12.04-.1.21.07.48-.13.66-.23.08-.15-.31-.38-.21-.15.07-.29.17-.43.02-.15-.25.06-.43.14-.6.16-.32.21-.6-.05-.88-.16-.18-.18-.4-.1-.6.21-.52.15-1.08.09-1.59-.1-.79-.26-1.57-.31-2.36,0-.13-.1-.18-.3-.16-.02.32.03.67-.07.98-.2.62-.2,1.26-.26,1.88-.1,1.07-.05,2.16-.02,3.24.01.59.11,1.17.62,1.57.08.06.17.14.14.3-.09.08-.27.14-.32.03-.22-.44-.63-.72-.93-1.1-.4-.52-.71-1.13-1.28-1.45-.32.05-.26.44-.59.47-.33-.54-.95-.73-1.43-1.1-.46-.36-.94-.72-1.52-1.01.12.56.33.9.71,1.16.66.45,1.3.92,1.82,1.52.53.61,1.08,1.21,1.64,1.81.14.16.15.33.16.52.06,1.15-.1,2.3.16,3.45.06.27.09.66-.35.77-.16-.23-.25-.45-.28-.73-.08-.84-.39-1.57-1.25-1.91-.15-.06-.32-.12-.41-.24-.64-.78-1.64-1.07-2.36-1.75.08-.21.15-.43.23-.65.45-.06.84.08,1.13.34.76.71,1.76,1.11,2.47,1.88.02.02.09-.02.17-.04.12-.28-.01-.6-.21-.7-.44-.23-.56-.71-.92-.99-.34-.26-.39-.56-.11-.87-.29-.43-.66-.77-1.06-.9-.52-.16-.86-.51-1.1-.88-.28-.44-.69-.72-1.03-1.08-.16-.17-.28-.38-.47-.53-.14-.11-.13-.28,0-.44.83-.1,1.68-.02,2.54-.15.89-.13,1.81-.09,2.71-.2.5-.06.73-.16.77-.62.03-.38.14-.79-.02-1.18-.6-.06-1.13.16-1.69.21-.4.04-.4.08-.5-.41.25-.2.56-.29.85-.43.43-.2.89-.31,1.3-.59.22-.16.43-.3.59-.52.24-.34.64-.43.97-.63.52-.31.97-.73,1.48-1.07.23-.15.42-.33.62-.51.78-.67,1.36-1.52,2.08-2.25.27-.28.43-.64.5-.99-.11-.12-.22-.12-.25-.07-.28.4-.74.62-1.04.99-.3.37-.63.55-1.12.42-.31-.08-.54.03-.7.37-.3.63-.88,1.04-1.33,1.56-.13.15-.29.24-.55.08.1-.26.28-.56.05-.86-.38-.13-.57.17-.71.4-.64,1.03-1.65,1.7-2.45,2.57-.27.29-.62.4-.98.49-.3.08-.47-.06-.37-.34.1-.29.09-.56.04-.85-.31.13-.55.28-.75.51-.16.18-.34.35-.53.5-.2.15-.42.17-.61.02.06-.33.4-.41.43-.75-.17-.03-.41.08-.48-.24.17-.16.35-.33.54-.5.22.19.03.41.15.56.08.06.14-.01.21-.04.09-.05.19-.09.28-.15,1.08-.74,1.96-1.67,2.66-2.78.35-.55.72-1.09,1.06-1.64.21-.34.54-.59.64-1,.17-.67.66-1.12,1.11-1.61.27-.29.7-.46.82-.93-.28-.03-.46.1-.58.27-.13.18-.29.32-.46.45-.98.73-2.13,1.21-3.03,2.07-.19.18-.37.09-.47-.19-.11-.28-.33-.3-.44-.06-.27.6-.58,1.2-.67,1.86-.07.55-.29,1.04-.56,1.48-.25.4-.7.66-1.22.92.09-.49.48-.62.63-.91.07-.21-.27-.35-.06-.59.12-.14.29-.33.16-.63-.42.04-.73-.14-.79-.62-.32.18-.48.55-.94.51.15-.32.42-.51.64-.73.23-.24.28-.48.13-.75-.22-.04-.37.25-.55.03.24-.74.19-.83-.44-.77.02-.55.17-1.04.59-1.44.17-.15.28-.36.35-.61.07-.26.21-.54.33-.79.23-.5.3-1.07.44-1.63-.11,0-.14,0-.17,0-.18.02-.25.17-.35.3-.24.31-.53.5-.96.16-.2.57-.18,1.14-.63,1.57-.41.39-.77.83-1.21,1.24-.02-.48-.15-.91-.38-1.3-.05.02-.12.02-.14.05-.17.24-.32.48-.55.04-.1-.18-.26.12-.42,0-.17-.13-.18-.31-.23-.49-.03-.11-.17-.1-.27-.13-.49-.13-.51-.13-.5-.63.01-.37-.08-.68-.25-1-.13-.23-.24-.48-.35-.71-.45,1.02-.11,2.11-.3,3.12-.19.06-.24-.04-.31-.12-.09-.12-.08-.25-.1-.38,0-.08,0-.2-.13-.2-.17.29.1.65-.14.9-.06,0-.1,0-.11-.02-.07-.14-.13-.28-.19-.43-.28.3-.48.65-.49,1.12-.33-.28-.59.11-.86-.04,0-.05-.02-.1-.03-.16-.03-.15-.15-.16-.24-.11-.1.05-.12.18-.03.27.05.05.14.07.21.1,0,.03.01.05.02.08.05.22.53.28.3.55-.26.31-.46-.05-.64-.21-.1-.09-.19-.19-.35-.14-.17.16.01.43-.17.59-.18.05-.38.03-.43-.13-.2-.65-.68-1.15-.88-1.78-.09-.28-.24-.47-.44-.64-.32-.27-.66-.53-1.01-.8-.23.46.05.82.27,1.11.27.36.45.76.6,1.17.11.3.22.61.39.87.4.59.34,1.23.26,1.86-.03.26-.21.48-.02.75.21.28-.28.52-.09.82.03.04.14.11.03.19-.46.17-.53-.51-.95-.45-.06.1-.11.2-.02.29.22.23.38.51.76.55.24.03.17.22.08.37-.17-.12-.36-.1-.55-.1-.02-.04-.05-.08-.07-.11l-.07.08s.08.05.11.07c.14.27.44.26.65.42.18.14.22.29.09.48-.28.1-.39-.41-.7-.2-.17.31.36.39.2.74-.39-.19-.74-.39-.84-.83-.04-.17-.09-.31-.22-.41-.24-.2-.32-.48-.46-.74-.39-.75-.59-1.58-.91-2.36-.27-.66-.59-1.28-.93-1.9-.02-.03-.09-.03-.14-.04-.23.06-.04.37-.21.43-.19.05-.33.02-.41-.09-.31-.42-.78-.56-1.23-.76-.31-.14-.42.02-.61.24.76.5,1.18,1.19,1.51,1.94.03.07.07.15.12.21.57.55.74,1.35,1.25,1.94.05.05.06.15.08.22.3,1.14.97,2.04,1.76,2.89.2.22.55.35.52.73-.27.02-.39-.24-.6-.32-.04-.01-.09.02-.14.03-.2.2.22.37-.03.62-.53-.24-1.16-.34-1.62-.79-.48-.46-.99-.87-1.72-1.17.18.44.24.77.27,1.11.08.02.15.08.08.15-.07.07-.12-.01-.15-.09-.96-.24-1.86-.65-2.64-1.24-.64-.49-1.29-.94-1.97-1.35-.18.22.1.54-.18.76-.25-.01-.55.09-.77-.07-.58-.4-1.28-.5-1.89-.82-.37-.19-.79-.4-1.28-.34.06.42.36.55.65.69.72.34,1.42.73,2.08,1.16.09.23,0,.45-.11.67.34,0,.56.17.83.21,1.02.15,2.03.32,3.02.63.25.08.53.09.67.36.06.11.15.13.26.14.53.07.96.33,1.44.58,1.67.87,3.41,1.6,5.37,1.52.48-.02.97.06,1.39-.25.19-.14.28.04.39.15-.1.18-.27.24-.47.24-1.08,0-2.16.06-3.24-.02-.73-.06-1.46-.23-2.13-.59-.76-.41-1.53-.81-2.3-1.21-.71-.36-1.5-.47-2.24-.75-.22-.08-.55-.12-.71.21.41.34.83.69,1.36.74.4.03.72.19,1.05.36.33.17.59.46.98.5.08,0,.13.08.13.18,0,.11-.02.22-.15.24-.1.02-.22,0-.35.19.72,0,1.25.44,1.85.67.62.24,1.26.45,1.78,1-.54.26-.97.57-1.33.98-.15.17-.33.24-.57.26-.75.06-1.32.51-1.9.92-.11.07-.28.16-.21.41.45,0,.88.03,1.32-.19.43-.21.89-.34,1.33-.53.28-.12.54-.13.89-.03-.22.3-.47.52-.48.85.3.13.61-.02.71-.21.2-.36.6-.54.74-.95.06-.18.23-.31.41-.37.58-.19,1.08-.54,1.62-.82.6-.31,1.28-.51,1.93-.32.56.17.99-.02,1.44-.2.31-.12.61-.19.94-.16.15.01.26.05.22.27-.86-.02-1.54.31-2,1.08-.09.15-.25.35-.39.36-.33.02-.41.25-.49.46-.1.27-.34.41-.5.62-.19.25-.5.41-.63.7.25.78-.03,1.46-.31,2.14-.29.07-.26.36-.29.52-.08.53-.34.94-.67,1.33-.06.07-.04.15.01.23.14.15.37-.09.51.11.24.74.23,1.52.24,2.29,0,.16.06.26.26.22.32-.73.34-1.55.36-2.32.03-1.11.45-2.02,1.1-2.83.76-.94,1.61-1.82,2.33-2.8.23-.31.55-.57.87-.82.36-.28.8-.41,1.13-.73.48-.46.75-.47,1.24-.05.37.32.73.65,1.01,1.04.26.35.58.62.86.94.4.45.78.92,1.01,1.49.06.15.08.32-.17.4-.22-.08-.37-.36-.68-.31-.34.05-.47.23-.42.6.38.18.71.52,1.11.7.47.21.79.52,1.02.95.17.31.32.6.69.74.21.08.42.25.55.44.58.86.92,1.79.84,2.85-.01.17-.04.32-.16.44-.49.52-.83,1.16-1.43,1.59-.28.21-.44.52-.54.87-.16.52-.36,1.04-.6,1.54-.32.67-.58,1.35-.7,2.09-.1.62-.23,1.27-.52,1.82-.47.92-.58,1.91-.74,2.89-.09.52-.23.98-.55,1.38-.2.25-.41.49-.46.82-.03.17-.15.28-.25.4-.48.55-.73,1.21-.88,1.92-.17.78-.28,1.56-.35,2.36-.08.87-.28,1.72-.3,2.6,0,.37-.1.74-.19,1.09-.1.39-.37.76-.83.92-.03-.1-.07-.17-.07-.25,0-.12.08-.17.17-.24.28-.25.41-.57.52-.95.1-.37-.06-.67-.04-1.01.02-.38.17-.73.17-1.1,0-.64.04-1.27.13-1.92.13-.86.04-1.73.32-2.6.34-1.1.41-2.29.73-3.41.14-.49.19-1.13.78-1.41.15-.46.56-.81.64-1.35-.66.2-1.16.48-1.42,1.1-.05.13-.2.33-.47.31-.1-.3-.03-.6,0-.91.09-.69.42-1.31.46-2.01.04-.51.12-1.02.11-1.54-.04-1.21.27-2.4.2-3.61-.02-.3.06-.67.24-.9.27-.34.25-.69.24-1.06-.02-.67-.02-1.37.3-1.96.46-.85.48-1.76.6-2.74-.62.29-.69,1.1-1.3,1.32-.27-.52-.34-1.06-.39-1.57-.11-1.19-.44-2.35-.53-3.54-.02-.21-.15-.38-.31-.57-.42.2-.68.57-.98.89-.37.39-.42.86-.3,1.35.17.66.12,1.39.58,1.97.03.03,0,.11.02.16.12.95.17,1.9.33,2.85.1.62.28,1.25.03,1.89-.06.15-.03.37.06.55.08.15.1.34.03.47-.18.31-.11.63-.11.95-.01.67-.03,1.35.01,2.02.04.7-.26,1.37-.18,2.07.02.21,0,.42-.23.51-.49-.29-.48-1.03-1.15-1.15-.55-.1-1.03-.5-1.67-.37.41.53.65,1.11,1.12,1.52.07.06.13.18.14.28.05.42.21.82.21,1.26,0,.52.06,1.07.22,1.56.19.55.26,1.09.25,1.65,0,.13,0,.27.02.4.17,1.01.27,2.01-.13,2.99-.09.21-.05.42-.06.64-.01.24,0,.47-.1.71-.12.31-.28.71-.18,1,.3.87-.19,1.57-.29,2.42-.26-.17-.34-.29-.38-.5-.14-.75-.33-1.5-.44-2.25-.14-.97-.32-1.94-.34-2.92-.01-.51-.04-1.03,0-1.54.03-.5-.13-1.02.11-1.51-.24-.49-.07-1.01-.12-1.51-.02-.19.05-.4-.03-.56-.36-.75-.28-1.62-.68-2.35-.18-.32-.06-.67-.26-.99-.58-.96-1.01-2.01-1.7-2.89-.5-.64-.99-1.3-1.75-1.71-.31-.17-.65-.36-.91-.61-1.02-1-1-1.01-1-2.53,0-.08,0-.16,0-.24,0-.59.17-1.07.63-1.49.63-.58,1.42-.93,2.14-1.52-.12-.35.12-.64.29-.98.17-.35.67-.47.65-1-.63-.03-.76.75-1.37.76-.19-.23-.45-.41-.85-.23,0,.4-.29.67-.6.86-.58.37-.95.96-1.46,1.39-.13.11-.19.32-.24.49-.23.9-.51,1.79-.5,2.73,0,.25-.12.4-.37.43-.68-.65-.78-1.13-.41-1.93.12-.27.27-.52.4-.78.24-.5.55-.97.7-1.5.11-.37.22-.71.49-.98.28-.28.32-.67.47-1.01.03-.08-.09-.18-.23-.23-.46.41-.96.79-1.15,1.35-.42.14-.24-.52-.66-.35-.14.22.07.53-.18.75-.28-.04-.07-.42-.32-.47-.17-.06-.28.33-.48.05.18-.74.51-1.47.18-2.25-.02-.04-.01-.11,0-.15.26-.58-.02-1.29.42-1.85.08-.1.06-.31-.05-.46-.15.02-.23.12-.27.25-.05.14-.11.23-.33.13.06-.36,0-.73-.21-1.05-.23-.36.1-.81-.19-1.15-.55.09-.56.09-.58.47-.02.35-.02.68-.14,1.03-.08.24-.09.56,0,.8.25.66.11,1.33.11,2,0,.29-.13.58-.2.89-.37-.14-.09-.5-.33-.63-.19.15.04.49-.26.6-.25-.27-.33-.57-.26-.89.12-.56-.06-1.03-.38-1.48-.32-.46-.63-.92-.8-1.46-.1-.32-.3-.2-.5-.09,0,.3,0,.6,0,.9,0,.8-.11,1.61.43,2.32.12.15-.05.27-.21.33-.05-.06-.11-.12-.16-.19-.28-.42-.58-.8-1.17-.75-.28.03-.4-.15-.53-.39-.3-.52-.33-1.11-.52-1.67-.37-.14-.67-.36-.89-.73-.22-.38-.55-.69-.85-1.02-.1-.11-.19-.28-.44-.18.12.56.42,1.05.67,1.56.24.5.63.98.7,1.5.09.64.28,1.23.52,1.8-.48.36-.42-.37-.73-.32-.21.2.26.35.04.54-.19.09-.31-.19-.45-.1-.21.14-.43.3-.57.5-.13.19-.15.46-.02.69.1.17.17.33.01.55-.9-.33-1.81-.68-2.73-.99-.48-.16-.96-.39-1.51-.22.14.3.39.42.63.54.41.2.82.4,1.22.6.45.23.88.54,1.36.66.56.14.7.68,1.12.91.04.02.08.05.12.08-.08.11-.16.21-.25.32.18.18.5.17.62.43-.31.36-.65-.17-.99.08.15.33.34.52.72.57.38.04.6.28.6.69-.27.13-.54.13-.74.07-.63-.21-1.19.04-1.75.21-.53.16-1.04.17-1.57.03-.4-.1-.82-.12-1.23.06.67-.03,1.3.32,1.97.23.34-.04.63.1.94.18.14.04.3.15.21.45-.65-.14-1.32-.27-2.03-.15.25.45.55.8.87,1.09.38-.11.71-.19,1.04-.3.17-.06.37-.12.49-.24.16-.15-.02-.36-.04-.63.77.37,1.64.03,2.29.61-.14.2-.28.23-.46.22-.35,0-.7,0-1.05,0-.16,0-.33,0-.44.14-.31.44-.75.51-1.26.54-.42.02-.9.02-1.26.37.17.26.41.33.65.26.99-.29,2-.31,3.01-.31.36,0,.67-.07,1.01-.19.39-.14.79-.32,1.23-.28.07,0,.14.05.19.07.11.19-.04.4.15.57.19,0,.4.04.6-.09.16-.1.24-.04.24.2-.4-.08-.71.15-.99.37-.24.19-.49.29-.78.38-.73.23-1.43.53-2.15.63-.11.16,0,.37-.22.43-.06-.07-.12-.12-.16-.19-.05-.1-.07-.2-.02-.31.81-.37.81-.38.21-1.26-.64-.1-1.23.15-1.89.21.37.84.54,1.37.9,2.38.13.18.44-.02.43.29q-1.36.93-1.16,1.45c.47-.06.81-.5,1.32-.47.03-.27.16-.43.45-.45.21-.01.43.02.6-.17.4-.43.93-.61,1.47-.77.37-.11.69-.26.92-.55.22-.28.46-.41.86-.3.05.18.14.37.35.47.41-.11.8-.25,1.09-.61.18-.22.43-.32.77-.09-.25.18-.18.47-.4.71-.72.82-1.34,1.71-1.99,2.58-.11.15-.14.34.1.48.44-.21.68-.65,1.05-.93.99-.75,1.94-1.56,2.78-2.48.69-.76,1.57-1.22,2.53-1.41,1.54-.29,2.68.32,3.67,1.77.21.31.4.64.57.97.34.69.78,1.32.91,2.11.08.49.22,1,.46,1.44.33.61.5,1.22.5,1.9,0,.83-.1,1.65-.13,2.48-.08,1.88-.09,3.77.3,5.62.17.8.3,1.62.74,2.34.46.75.9,1.52,1.35,2.28-.25.17-.41.03-.57-.13-.6-.6-1.2-1.2-1.81-1.8-.13-.13-.22-.31-.53-.27,0,.33.15.59.39.81.2.19.32.42.41.68.04.1,0,.23-.1.28-.06.03-.16.03-.23,0-.07-.02-.13-.09-.2-.14-.84-.68-1.69-1.37-2.53-2.06-.33-.26-.73-.44-.91-.86-.56-.22-.93-.65-1.25-1.14-.15-.23-.38-.37-.67-.39-.04-.09-.08-.26-.17-.21-.15.09-.08.22.05.31.09.34.36.67.07,1.06-.34-.14-.67-.33-1.03-.4-.52-.11-1.02-.27-1.5-.5-.23-.11-.51-.13-.76-.21-.68-.23-1.42-.36-2-.73-.84-.53-1.83-.73-2.63-1.31-.21-.15-.52-.34-.89-.32.11.39.44.5.68.68.17.12.41.17.56.3,1.22,1.06,2.57,1.92,4.01,2.66.54.28,1.06.61,1.57.95.72.48,1.42,1,2.14,1.47.3.19.49.38.42.81-.36.02-.7.14-.91.42-.19.25-.7.22-.64.71.25.13.49.05.73.06,1.12.05,2.25-.05,3.36.17.26.05.29.18.19.45-.58-.09-1.04.37-1.66.38-.57,0-1.08.57-1.73.4-.07-.17-.41-.76-.52-.91q-.63.15-1.34-.17c-.09-.43.15-.66.5-.81.33-.14-.54-2.07-.54-2.52-.71-.44-1.43-.8-2.06-1.28-.17-.13-.32-.18-.5-.02.2.22,2.26,5.15,2.57,6.05.02.07.06.16.12.19.37.15.13.37.03.51-.17.25-.49.42-.75.42-.55,0-.96.31-1.44.45-.36.11-.69.25-1.08.26-.28,0-.56.1-.77.31.06.08.08.14.11.16.04.02.11,0,.16.03.47.2.53.47.14.74-.61.42-1,1.09-1.7,1.41-.12.06-.17.2-.2.34-.15.79-.3,1.57-.45,2.36,0,.04.05.09.13.23.26-.77.71-1.36,1.09-2,.11-.19.24-.32.43-.44.75-.46,1.6-.7,2.37-1.12.14-.08.28-.17.53-.05,0,.88-.86,1.48-.96,2.35.18.03.28-.02.35-.1.43-.5.73-1.12,1.33-1.46.06-.03.11-.14.1-.21-.01-.25.17-.33.33-.4.15-.07.25-.19.36-.27.6-.39,1.1-1.05,1.8-1.14.66-.09,1.17-.47,1.78-.62.15-.04.28-.14.45-.14.48.01.87-.24,1.22-.53.23-.18.44-.38.79-.42.05.32.03.61-.04.93-.33,1.36-.72,2.71-.88,4.11-.04.36-.16.67-.42.93-.54.53-1.04,1.1-1.62,1.58-.39.33-.69.72-1.08,1.16.32.01.51.03.73-.18.53-.5,1.23-.73,1.86-1.07.09-.05.21-.05.34.05.08.56.04,1.13-.15,1.7-.15.45-.39.89-.45,1.35-.1.86-.28,1.67-.77,2.39-.07.1-.07.25-.11.38-.32.11-.5.35-.65.64-.13.24-.03.32.21.4.12-.34.48-.54.53-.93.12-.29.5-.26.63-.52.21-.42.5-.81.64-1.27.15-.49.4-.94.77-1.27.29-.25.57-.46.77-.79.16-.27.36-.28.59-.07.12.11.2.24.29.38.33.54.65,1.08.8,1.7.06.24.16.38.45.33-.08-.99-.46-1.9-.66-2.85-.14-.64-.13-1.31-.43-1.92-.25-.51-.18-1.05-.13-1.58.03-.28.14-.56.14-.86,0-.17.12-.31.3-.31.14,0,.27.11.3.24.08.48.41.87.49,1.34.06.37.3.58.51.82.25-.13.18-.31.18-.46,0-.57,0-1.13,0-1.7,0-.32.07-.67-.02-.97-.21-.71-.25-1.46-.55-2.15-.12-.28-.18-.65.06-.92.24-.27.39-.56.55-.87.1-.2.29-.33.58-.1,0,.14,0,.33,0,.51-.02.91-.08,1.82-.12,2.72-.09,1.83-.03,3.67-.04,5.5,0,.37,0,.73-.12,1.11-.1.31-.05.68.02,1.04.11.54.25,1.09.26,1.65,0,.61.2,1.2.27,1.8.06.56.33,1.07.36,1.62.03.46.13.89.29,1.32.13.34.22.7.24,1.09.02.43.16.85.25,1.25.2.02.31-.09.31-.16.05-.46.29-.85.43-1.27.24-.72.37-1.49.97-2.06.32-.3.42-.68.21-1.16-.24-.55-.39-1.15-.62-1.71-.29-.71-.26-1.51-.4-2.26-.11-.63-.13-1.27-.2-1.9-.11-1-.28-2-.29-3.01,0-.4.03-.81,0-1.21-.06-.73.09-1.45.23-2.14.13-.63.29-1.24.27-1.88,0-.13-.01-.28.25-.27.03.83.37,1.63.37,2.48,0,.16-.03.35.04.48.33.64.49,1.35.74,2.02.28.74.69,1.42.96,2.17.53,1.47.24,2.95.14,4.42,0,.12-.11.24-.09.38.02.08.05.15.23.15.26-.28.48-.6.42-1.07-.03-.24-.06-.51.01-.72.32-.9.67-1.79,1.03-2.67.08-.18.3-.3.47-.15.29.25.7.31.95.58.63.65,1.51.95,2.13,1.62.38.41.92.67,1.28,1.13.12.15.23.38.5.36.08-.1.24-.14.21-.33-.49-.49-1.04-.98-1.38-1.63-.07-.14-.19-.17-.3-.25-.16-.11-.27-.25-.36-.43-.57-1.09-1.24-2.11-1.9-3.14-.14-.22-.37-.49-.19-.75.2-.21.5,0,.6-.27,0-.2-.14-.27-.27-.37-.86-.62-1.72-1.23-2.45-2.01-.19-.2-.38-.41-.44-.66-.06-.28-.24-.46-.38-.68-.21-.34-.56-.66-.44-1.19.54.31,1.05.57,1.52.9.37.25.67.61,1.04.87.6.42,1.19.9,2,.86.17,0,.32.02.45.14.12.12.26.16.43.18,1.61.22,2.81,1.04,3.58,2.48.15.27.38.53.63.71.24.17.38.53.8.5.07-.48-.17-.79-.47-1.06-.85-.8-1.12-1.77-.92-2.88.72-.23,1.41-.43,2.16-.71-.44-.45-.88-.66-1.4-.68-.27-.01-.54,0-.81,0-.3-.01-.58-.09-.69-.43.56-.7,1.21-1.25,2.07-1.64-.59-.59-1.2-.41-1.66-.11-.9.59-1.91.58-2.9.69-.69.08-1.37-.14-2.03-.32-.94-.27-1.88-.54-2.86-.61-.24-.02-.4-.13-.6-.27.28-.19.5-.38.76-.52.59-.32,1.22-.45,1.9-.52.97-.11,1.88.07,2.82.17.36.04.56.28.87.36.7.19,1.42.19,2.12.29.87.12,1.72.36,2.6.36.16,0,.25.1.34.19.4.39.98.4,1.41.73.15.11.4.1.62-.16-.5-.41-1.05-.74-1.46-1.2-.43-.48-1.17-.49-1.57-1.15.54,0,.82-.37,1.18-.59.36-.21.89-.05,1.17-.48-.13-.15-.29-.17-.4-.12-.59.22-1.21.11-1.81.25-.63.15-1.3.16-1.89-.13-.47-.23-.89-.58-1.24-1-.26-.32-.26-.49.07-.73.46-.32.93-.62,1.41-.91.23-.13.47-.26.75-.24.52-.66,1.24-1.03,1.95-1.43.55-.31,1.15-.56,1.64-.94.64-.5,1.23-1.07,1.78-1.67.36-.39.68-.85.78-1.46-.38.02-.61.19-.82.39-.75.7-1.63,1.17-2.58,1.54-.83.32-1.67.66-2.47,1.06-.81.4-1.5,1.03-2.42,1.23-.06.01-.1.12-.16.16-.67.47-1.26,1.08-2.14,1.14-.48.37-1.11.28-1.63.59-.35.21-.78.31-1.14.54-.29.19-.61.17-.91.17q-.26-.47-.31-1.31c0-.16.02-.35-.25-.3-.19.68-.41,1.36-.56,2.05-.15.68-.7.95-1.18,1.31-.04.03-.15-.02-.28-.05.29-.9.13-1.81.17-2.71,0-.11-.01-.22.02-.32.27-.97.53-1.94,1.01-2.83.12-.23.2-.48.29-.74.2-.6.29-1.25.66-1.77.23-.34.35-.7.47-1.08.21-.68.2-1.41.47-2.08.24-.59.39-1.21.34-1.87,0-.13.02-.27.06-.39.25-.72.6-1.42.73-2.18.01-.08.03-.16.07-.23.5-.96.99-1.91,1.56-2.83.16-.26.37-.47.61-.64.3-.21.73-.36,1.04-.26.59.18,1.19.46,1.69.83.43.32.82.68,1.32.89.29.13.44.33.51.66.17.76.39,1.5.61,2.32.45-.51.63-.98.37-1.56-.12-.26-.22-.54-.29-.82-.04-.14-.08-.33.17-.44.32.12.69.22,1.09.26.03-.31-.2-.36-.39-.43-.48-.17-.94-.4-1.27-.8-.43-.53-.76-1.14-1.31-1.68.4-.13.71-.13,1.01-.02.25.09.5.22.75.24.53.04.91.36,1.24.68.54.52,1.17.8,1.86.98.15.36.45.5.9.65-.12-.53-.42-.68-.79-.77-.02-.24-.24-.26-.39-.36-.38-.28-.84-.49-1.02-.98-.03-.07-.1-.12-.17-.17-.7-.55-1.31-1.24-2.23-1.45-.15-.03-.28-.15-.43-.21-.26-.1-.22-.26-.1-.44.42.1.79.37,1.19.42.53.08.9.33,1.22.7.53.61,1.15,1.1,1.85,1.5.34.19.69.37,1.1.45.51.1,1.01.23,1.49.5.59.33,1.22.62,1.88.82.47.14.9.14,1.41.05-.09-.12-.13-.2-.19-.24-.72-.5-1.42-1.03-2.19-1.45-.26-.14-.5-.28-.72-.47-.3-.25-.6-.51-1.02-.58-.3-.05-.47-.31-.5-.61-1.02-.06-1.94-.25-2.87-.76.18-.01.3-.06.38-.02.41.19.84.14,1.27.14.59,0,1.19-.04,1.78,0,.72.06,1.34-.37,2.03-.37.39-.33.88-.33,1.33-.46.83-.25,1.64-.56,2.46-.88.13-.05.27-.21.05-.42-.87.32-1.77.66-2.76.45.1-.17.22-.26.4-.26.24,0,.48-.12.7-.12.44,0,.62-.24.78-.57.33-.7.64-1.41,1.01-2.08.34-.61,9.59-22.21,9.47-22.51-.33,0-.62,0-.92,0-3.37.06-66.3.47-67.46.48-.18,0-.38-.07-.54.12.33.8,9.87,23.1,10.49,24.48.07.16.16.32.31.34Zm31.12-11.43c-.14.13-.19.31-.4.2.06-.14.13-.26.4-.2Zm-12.33.73c-.71,0-1.04-.29-1.23-.78.54-.02.82.35,1.23.78Zm-1.37-2.01c.09-.13.11-.02.15.05.27.16.6.17.88.34.16.1.24.2.19.39-.16.15-.37.13-.52.03-.26-.18-.57-.33-.6-.7-.07,0-.13-.06-.09-.1Zm.16,2.67c.39-.2.8-.15,1.26-.12-.42.43-.84.27-1.26.12Zm11.79-4.34s.06.05.09.07c-.05.06-.1.11-.16.17-.03-.05-.06-.08-.07-.12,0-.09.04-.15.14-.13Zm-2.05-4.58c.05-.15.18-.15.31-.13.02,0,.04.03.06.04,0,.02-.01.04-.02.06-.08.1-.16.2-.31.15-.03,0-.05-.09-.04-.12Zm.03,9.94c.44-.17.88-.35,1.32-.52.37-.14.75-.28,1.03-.56.26-.26.6-.27.93-.35-.9.87-1.91,1.54-3.28,1.44Zm-20.91,4.38c-.36-.37-.43-.71-.3-1.23.4.39.44.74.3,1.23Zm5.95,2.42c0-.13.09-.2.2-.16.1.04.1.17.08.28-.02.07-.06.15-.15.13-.14-.04-.13-.14-.12-.24Zm-4.51,6.85c.18-.22.31-.49.68-.38-.08.38-.28.53-.68.38Zm4.86-1.77c-.41.01-.78.12-1.13.32-.06.03-.17.04-.23.01-.88-.39-1.53.03-2.13.61-.03.03-.1.03-.15.04-.14-.07-.19-.2-.11-.32.12-.17.26-.37.47-.41.21-.05.31-.19.42-.34.31-.42.72-.65,1.25-.65.4,0,.8,0,1.21,0,.13,0,.28,0,.4.04.15.06.28.16.28.35,0,.19-.12.35-.26.36Zm22.5-2.24c-.48-.87-.56-1.71-.84-2.47.25-.2.42-.1.48.04.28.72.6,1.45.36,2.43Zm1.25-1.99c-.35-.48-.64-.84-.63-1.37.65.33.78.59.63,1.37Zm10.35-1.77c-.51.19-.86.49-1.04.99-.04.1-.09.19-.14.29-.31.6-.76,1.16-.42,1.88-.73.36-2.01.58-2.36.42-.05-.14.08-.19.15-.23.45-.28.69-.65.6-1.2-.03-.18.05-.34.2-.41.39-.18.47-.57.59-.89.1-.29.25-.42.51-.54.81-.37,1.64-.69,2.56-1.02-.03.51-.39.62-.65.71Z"></path><path class="cls-1" d="m56.03,74.5c-.21-.6-.43-1.21-.6-1.81-.38-1.36-1.02-2.62-1.38-3.97-.02-.09-.13-.17-.22-.28-.76.33-1.57.48-2.37.6-.76.12-1.51.31-2.26.46-.88.17-1.75.38-2.63.58-.91.2-1.85.25-2.73.5-1.42.4-2.9.58-4.4,1.04.27.4-.27.6-.27,1.08.62-.21,1.23-.26,1.79-.44.76-.25,1.55-.37,2.32-.51,1.25-.23,2.48-.55,3.72-.81.83-.17,1.65-.37,2.48-.54.67-.14,1.37-.19,2.01-.42.58-.21,1.16-.17,1.74-.25.34-.04.48.16.59.41.19.46.25.97.47,1.43.41.88.76,1.79.88,2.79-.28.12-.55.21-.85.25-.7.1-1.41.23-2.09.43-.63.18-1.28.32-1.92.47-.59.13-1.19.35-1.79.36-1.05.03-2.05.29-3.05.55-.39.1-.79.04-1.17.21-.75.35-1.59.39-2.39.55-.91.18-1.83.27-2.73.5-.84.21-1.68.45-2.59.52-.13.81-.84,1.37-.94,2.25.42-.02.77,0,1.15-.11.86-.26,1.77-.36,2.65-.51,1.31-.23,2.59-.54,3.9-.78.78-.14,1.54-.49,2.32-.5.85-.01,1.61-.42,2.44-.38,1.81-.52,3.67-.77,5.51-1.11.33-.06.52.05.58.39.05.32.13.63.28.91.1.2.34.2.46.01.06-.09.09-.19.12-.29.26-.94.5-1.88.93-2.76.12-.24.14-.53.04-.82Z"></path><path class="cls-1" d="m33.63,78.97c-.16-.32-.43-.65-.95-.72-.38-.05-.78-.07-1.17-.19-.99-.29-2-.57-3.02-.68-1.04-.11-2.04-.36-3.03-.61-.8-.2-1.61-.32-2.41-.52-.3-.08-.61-.18-.93-.2-.71-.05-1.43-.08-2.08-.42-.09-.05-.21-.04-.31-.05-.93-.17-1.87-.33-2.8-.53-.54-.11-1.07-.32-1.64-.29-.26.01-.46-.13-.69-.18-.32-.07-.42-.31-.32-.61.08-.23.24-.4.33-.63.41-1.03.74-2.08,1.27-3.06.1-.18.13-.4.39-.52.55.39,1.25.29,1.88.5.3.1.61.18.94.17.53-.01,1.06-.01,1.56.27.29.16.67.15,1,.21.44.08.9.12,1.32.26.81.26,1.66.3,2.48.53.25.07.49.21.77.19,1.08-.05,2.08.39,3.11.59.56.11,1.12.25,1.79.41-.19-.81-.6-1.15-1.27-1.19-.24-.01-.46-.08-.7-.15-.88-.28-1.81-.36-2.7-.65-.7-.23-1.43-.41-2.16-.47-.78-.06-1.5-.31-2.26-.44-.89-.15-1.76-.38-2.64-.56-.98-.21-1.97-.4-2.95-.61-.5-.11-.72-.01-.92.51-.18.47-.39.93-.56,1.41-.2.58-.6,1.08-.72,1.68-.1.49-.33.89-.67,1.23-.21.2-.32.42-.31.69.01.44-.12.93.36,1.25.12.08.11.23.11.37,0,.16,0,.32.08.47.35.7.69,1.4,1.06,2.16.42-.48.55-1.02.81-1.52.95,0,1.84.31,2.77.39.91.08,1.8.43,2.71.58,1.15.19,2.26.53,3.42.69.34.05.69.05,1.02.16,1.11.35,2.29.44,3.4.79.81.26,1.67.27,2.5.46.75.18,1.52.2,2.25.47.19.07.38.04.51-.13.13-.17,0-.29-.07-.44-.16-.36-.39-.69-.56-1.05Z"></path><path class="cls-1" d="m41.62,63.88s-.04-.11-.08-.13c-.37-.18-.63-.61-1.17-.46-.12.26-.29.54-.38.84-.43,1.31-4.88,11.44-5.16,11.41-.52-1.17-4.32-9.45-4.82-10.65-1.27.6-1.49,1.2-.91,2.39.04.07.07.15.1.22.32.74,1.39,3.43,1.7,3.99.13.23,3.75,8.63,4.12,8.82.26-.38,6.19-14.32,6.55-15.04.26-.51-.04-.93.05-1.38Z"></path><path class="cls-1" d="m14.41,78.67c-.15-.75-.53-1.3-1.33-1.48-.28-.06-.57-.13-.85-.2-.9-.24-1.79-.53-2.74-.46-1.38.09-2.79-.22-4.14.33-.02,0-.05,0-.08,0-.73,0-1.38.34-2.06.53-.54.15-1.12.32-1.75.25.16-.5.24-.95.01-1.42-.08-.17-.02-.41.04-.62.18-.63.19-1.26-.02-1.89-.05-.16-.07-.31.03-.49.14-.06.31-.16.48-.21.63-.18,1.28-.32,1.91-.51.89-.26,1.8-.46,2.73-.47.7-.01,1.4.01,2.1,0,1.32-.04,2.59.2,3.84.59.22.07.42.07.63.06.19,0,.37-.1.49-.25.1-.13.05-.31.03-.47-.21-.17-.45-.23-.72-.28-.72-.16-1.48-.19-2.17-.42-.91-.31-1.86-.07-2.76-.36-.26-.08-.49.15-.77.16-.83.03-1.65.11-2.48.18-.16.01-.32.05-.47.08-1.23.21-2.38.69-3.58,1.03-.67.19-.83.62-.47,1.2.15.25.4.43.52.71.08.19.15.34.02.52-.29.4-.27.87-.22,1.32.08.73-.16,1.36-.49,1.98-.06.12-.18.21-.14.36.2.72.43,1.43.96,1.98.16.17.32.27.57.18,1-.34,1.99-.7,2.99-1.01.78-.24,1.56-.52,2.38-.57.91-.05,1.84-.09,2.75.01.91.11,1.8.39,2.69.62.43.11.87.2,1.28.41.24.13.5.11.74-.11.23-.22.27-.47.18-.73-.06-.18-.09-.36-.13-.54Z"></path><path class="cls-1" d="m69.31,72.87c-.35-.21-.65-.4-.99-.57-.47-.24-.99-.22-1.43-.46-.22-.12-.45-.15-.7-.15-.24,0-.47-.06-.7-.12-1.32-.36-2.65-.62-4.03-.52-.54.04-1.08,0-1.62,0-.19,0-.38,0-.56.04-1.2.32-2.39.66-3.58,1,.21.59.28.69.58.57.55-.22,1.14-.23,1.69-.41.55-.18,1.09-.22,1.65-.23.86,0,1.72,0,2.58-.03.75-.03,1.5.11,2.22.25,1.09.21,2.14.58,3.24.78.19.04.3.21.5.44-.29.3-.14.59-.02.89.26.62.39,1.24,0,1.88-.19.31-.35.65-.3,1.05.06.49,0,.56-.44.56-.2,0-.35-.11-.53-.17-.65-.21-1.31-.46-2-.47-.96-.01-1.91-.3-2.88-.19-.08,0-.17,0-.23-.04-.21-.11-.42-.15-.61-.01-.22.16-.36-.13-.6-.04-.65.24-1.36.13-2.05.26-.94.17-1.85.42-2.74.79-.13.05-.2.13-.28.26-.27.46-.36.95-.31,1.46.04.45.61.9.95.72.66-.33,1.35-.55,2.07-.72.57-.14,1.15-.28,1.72-.32,1.63-.13,3.26-.03,4.89.15.1.01.2.08.3.1.64.16,1.27.38,1.89.6.72.26,1.22.15,1.56-.39.34-.55.58-1.19.39-1.82-.21-.71-.15-1.36.1-2.02.17-.45.17-.89-.05-1.32-.18-.35-.27-.67.06-1.03.16-.17.17-.48.25-.75Z"></path><path class="cls-1" d="m48.91,43.93c.55-.33,1.13-.58,1.73-.78.28-.09.46-.3.62-.58.5-.88,3.75-8.72,4.45-10.18-.65-.25-1.26-.49-1.81-.71-.31.11-4.57,10.28-5.23,11.76-.08.18-.18.33-.06.5.11.08.21.04.3-.02Z"></path><path class="cls-1" d="m18.89,44.2c.08.46.36.67.69.76.51.15.98.35,1.48.52.14.05.25.23.43.09.17-.3-.06-.51-.17-.73-.28-.63-4.78-10.65-5.16-11.3-.66.09-1.29.18-1.91.27.01.1,0,.21.04.3.61,1.37,4.51,9.59,4.6,10.09Z"></path><path class="cls-1" d="m14.25,33.81s0,0,0-.01c0,0,0,0-.01,0,0,0,0,0,0,.01h.02Z"></path><path class="cls-1" d="m27.64,60.52c.3-.3.36-.62.2-.99-.36-.84-1.27-2.8-1.37-2.92-.11-.14-.28-.21-.43-.14-.44.21-.99.24-1.28.76.6,1.29,1.23,2.57,1.75,3.96.49-.2.84-.38,1.13-.67Z"></path><path class="cls-1" d="m41.73,59.87c.46.75.88,1.43,1.34,2.19.86-1.21,1.03-2.62,1.67-3.9-.63-.31-1.22-.63-1.93-.73-.27.85-.57,1.67-1.07,2.44Z"></path><path class="cls-1" d="m48.18,48.2c-.36.13-.72.19-1.1.17-.18-.01-.37-.03-.52.14-.52.56-.3,1.31.44,1.5.08.02.15.05.23.07.74.22,1.15.05,1.52-.62.48-.85.79-1.78,1.2-2.66.06-.13.13-.24-.03-.38-.48.19-.76.74-1.37.85.21.72.2.73-.37.94Z"></path><path class="cls-1" d="m56.69,75.98c-.15-.12-.3-.26-.48-.42-.01.43-.41.74-.13,1.13.17-.09.35-.15.54-.13.66.07,1.16-.12,1.32-.84.01-.05.06-.08.13-.16.25.25.58.22.89.19.3-.03.65.14.94-.24-.45-.48-.06-1.31-.77-1.73-.24.06-.48.16-.75.2-.32.04-.2.46-.45.65-.37-.2-.73-.4-1.1-.6q-.33-.18-.21-.65c.28-.18.51.1.85.1-.12-.24.19-.4.05-.68-.45.18-.95.15-1.35.47-.07.63.1,1.17.61,1.57.24.19.38.45.49.72.07.16,0,.32-.13.43-.14.11-.3.12-.44.01Zm1.83-1.32c.15-.24.37-.27.66-.16.07.25.07.46.01.66-.04.12-.14.22-.29.24-.18.03-.31-.06-.39-.21-.09-.17-.1-.36,0-.53Z"></path><path class="cls-1" d="m55.57,28.27c-.45.14-.9.82-.85,1.27.01.1.06.21.13.28.43.43.91.79,1.59.96.4-.98.96-1.86,1.21-2.86-.14-.15-.28-.15-.41-.11-.56.14-1.12.29-1.67.46Z"></path><path class="cls-1" d="m63.13,74.53c.06-.28.07-.54,0-.8q-.86-.59-1.53.05c-.09-.1-.04-.35-.29-.29-.35.28-.2.86-.62,1.12-.29-.27-.29-.6-.32-.99-.27.04-.46-.06-.65.16.38.6.5,1.32.8,2.07.53-.39.43-1.08.86-1.43.27.29.26.66.43.96.21.38.55.35.89.38.33.03.34-.23.4-.44-.29-.13-.6.04-.9-.14.02-.17-.08-.35.09-.51.28-.1.59.06.85-.13Zm-1.19-.26c.17-.29.26-.44.36-.62.25.11.41.26.53.51-.25.2-.5.08-.88.1Z"></path><path class="cls-1" d="m19.31,74.29c.58-.72.68-1.71,1.37-2.38-.25-.2.02-.59-.19-.84-.18-.03-.34-.08-.42.13-.11.29-.31.54-.35.88-.03.27-.11.58-.45.64-.28-.18-.06-.49-.26-.68-.36-.11-.73-.04-1.09-.02-.33.33-.52.73-.6,1.17-.07.4.21.74.61.77.19.01.37-.01.56-.03.29-.03.31-.23.3-.46.09-.03.17-.06.24-.08.29.23-.39.74.28.89Zm-1.41-.72c-.15-.98,0-1.2.8-1.17.2.34-.03.72.08,1.07-.3-.07-.55.33-.87.11Z"></path><path class="cls-1" d="m51.35,72c-.41.06-.82.19-.98.6-.16.41-.21.84.1,1.26.22.29.43.54.74.42.41-.16.84-.06,1.31-.24-.33-1.16-.39-2.37-.83-3.54-.75.41-.09.96-.26,1.42-.05.04-.07.07-.09.07Zm.42,1.18c0,.21-.24.45-.45.46-.34,0-.47-.16-.48-.58,0-.32.12-.5.36-.53.26-.03.57.33.57.65Z"></path><path class="cls-1" d="m38.81,74.44c-.52.21-.75.7-.61,1.31.11.5.5.82,1.02.82.21,0,.45.06.62-.1.19-.17.49.26.6-.14.07-.24,0-.46-.07-.69-.16-.5-.29-1.02-.36-1.53-.04-.32-.08-.63-.18-.93-.08-.26-.26-.2-.5-.12,0,.25,0,.47,0,.68q0,.49-.52.7Zm.99.94c0,.34-.28.68-.54.68-.3,0-.58-.37-.56-.75.01-.35.27-.66.56-.67.24,0,.56.42.55.74Z"></path><path class="cls-1" d="m26.47,76.53c.16.05.31.05.53,0,.11-.43.5-.77.54-1.27.04-.53.58-.82.63-1.35-.52-.43-1.19-.5-2.06-.21-.1.29-.16.61-.3.89-.18.38-.1.69.22.91.33.23.4.54.36.9,0,.04.05.09.08.13Zm-.22-1.56c-.11-.4.16-.63.43-.86.27-.23.48-.12.68.15-.14.27-.29.54-.43.81-.07.13-.17.19-.32.17-.18-.02-.31-.13-.35-.28Z"></path><path class="cls-1" d="m7.56,73.92c-.19.57-.03.98.26,1.46.22.07.42.16.62.2.65.11.93-.15.95-.82.02-.53-.02-1.05.08-1.58.04-.22.17-.72-.37-.8-.06.13-.15.26-.2.41-.06.16.08.38-.16.53-.47,0-.95-.09-1.18.6Zm.58,1.16c-.06-.44-.06-.81,0-1.17.47-.04.54,0,.59.31.09.58,0,.72-.58.87Z"></path><path class="cls-1" d="m2.41,76.35c-.07-.18-.25-.21-.39-.09-.17.15-.13.36.02.49.2.17.43.29.64.43.12-.05.22-.09.31-.14.82-.43.84-.48.59-1.44-.2-.76-.38-1.52-.57-2.28-.3-.03-.57-.07-.7.17.2,1.02.74,1.92.55,3.02-.23.03-.37.04-.45-.16Z"></path><path class="cls-1" d="m45.38,72.33c.15-.07.16-.22.11-.34-.08-.19-.28-.19-.4-.1-.36.25-.75.47-.93.94-.21.58-.18,1.17-.06,1.73.07.35.4.6.72.78.3.17.63.1.94.07.22-.02.4-.15.43-.41.28-.12.58-.07.87-.07.33,0,.65-.09.85-.31.38-.42.14-.91,0-1.35-.13-.4-.52-.3-.83-.3-.56,0-.76.2-.79.77-.02.39.03.8-.18,1.16-.12.04-.25.08-.37.13-.17.06-.33.05-.43-.09-.43-.62-.82-1.24-.45-2.05.12-.26.27-.44.53-.56Zm1.45,1.07c.08-.18.29-.29.47-.22.18.07.32.2.37.44.07.36.07.66-.2.94-.31.05-.53,0-.71-.34-.18-.33-.05-.57.07-.82Z"></path><path class="cls-1" d="m20.88,74.6c.36.04.74.07,1.13-.05-.02-.6.15-1.12.56-1.6-.43-.29-1.09-.53-1.33-.47-.23.06-.48.14-.62.35-.16.25-.31.51-.39.79-.15.52.11.92.65.98Zm.55-1.38c.08.63,0,.74-.6.87-.15-.66-.04-.81.6-.87Z"></path><path class="cls-1" d="m16.28,70.41c-.21.09-.28.28-.34.45-.18.58-.51,1.1-.75,1.65-.04.1-.12.18-.15.28-.1.36.04.57.43.7.74.23,1.2-.02,1.56-.7.13-.25.11-.51.2-.76.08-.22,0-.47-.32-.51-.13-.02-.27.02-.35-.07-.16-.35.16-.8-.29-1.03Zm.33,1.48c.04.41.19.82-.14,1.2-.2.23-.43.28-.75.13-.02-1.08.05-1.18.89-1.32Z"></path><path class="cls-1" d="m50.2,16.9c.28.13.48.02.71-.08.88-.36,1.49-1.09,2.24-1.63.08-.06.14-.16.06-.32-.24-.05-.47-.03-.72.13-.29.18-.61.3-.97.36-.35.05-.74.21-.98.45-.26.27-.4.68-.33,1.1Z"></path><path class="cls-1" d="m3.9,74.7c-.13.47.17.81.37,1.18.54.12,1.04-.07,1.56-.19-.16-.67-.36-1.31-.33-2-.57-.13-1.01,0-1.45.19.18.21.52-.05.63.29-.18.3-.56.3-.77.54Zm.73-.06c.49.21.61.34.5.53-.11.2-.37.3-.54.18-.08-.06-.17-.15-.19-.24-.06-.21.07-.35.24-.47Z"></path><path class="cls-1" d="m42.83,75.89c-.39-.47-.44-.93-.42-1.4,0-.12-.09-.25-.14-.37-.1-.24-.27-.2-.51-.08,0,.24,0,.5,0,.77,0,.26.03.54-.39.62-.11-.48-.21-.96-.31-1.43-.21-.07-.34.03-.39.19-.05.18-.09.4-.02.55.16.34.1.68.16,1.21.64.04,1.26-.07,2.01-.06Z"></path><path class="cls-1" d="m23.48,74.92c.52.23.65.22.78-.07.18-.41.33-.82.47-1.24.09-.27-.09-.48-.38-.46-.15,0-.3.09-.44.13-.25-.14-.4-.36-.52-.6-.32.02-.35.26-.36.36-.05.49-.35.88-.45,1.34-.03.12-.14.23.01.38.62-.09.61-.69.82-1.1.54.12.51.11.43.51-.06.28-.24.5-.35.74Z"></path><path class="cls-1" d="m29.03,76.33c.06.15.33.12.41-.03.28-.54.58-1.07.69-1.68.03-.15.01-.34-.21-.36-.14-.01-.24.02-.31.18-.13.29-.31.55-.43.85-.14.35-.37.31-.65.21.13-.41.26-.81.38-1.21.08-.28-.1-.31-.34-.32-.25.61-.5,1.23-.77,1.87.15.04.23.07.3.07.37,0,.75-.05.93.42Z"></path><path class="cls-1" d="m11.85,75.75c.02.14.09.27.23.3.19.04.32-.08.36-.24.1-.44.14-.88.33-1.3.07-.17-.1-.37-.23-.37-.43.03-.75-.18-1.11-.35-.12-.06-.32-.05-.42.12-.08.5.05,1.01-.15,1.51-.12.29.13.35.38.33.24-.4.05-1.01.56-1.3.33.2.2.45.16.67-.04.21-.15.41-.11.63Z"></path><path class="cls-1" d="m53.55,72.8c.13-.03.26-.08.37-.13.2-.1.34-.4.28-.59-.11-.39-.55-.63-1.02-.55-.35.06-.59.34-.6.73-.01.52.13.99.47,1.4.52-.02,1.11.18,1.35-.55-.15-.14-.27-.14-.36-.11-.1.03-.18.11-.26.18-.16.15-.35.22-.48.02-.12-.2,0-.34.23-.39Zm-.44-.56c-.05-.28.14-.38.34-.43.19-.04.24.13.28.27,0,.23-.16.42-.38.41-.15,0-.22-.11-.24-.25Z"></path><path class="cls-1" d="m30.97,75.76c.08,0,.16,0,.24.01.24.02.47-.07.5-.3.04-.28.13-.6-.07-.86-.28-.36-1.33-.18-1.36.26-.03.53-.35,1.03-.15,1.57q.71.32,1.1-.1c-.04-.13-.15-.14-.25-.14-.19,0-.41.03-.39-.25.01-.22.21-.2.37-.2Zm-.16-.91c.19-.1.4-.13.56.05.04.04.03.17,0,.23-.11.18-.3.17-.48.13-.07-.02-.14-.05-.23-.08-.02-.2.07-.28.15-.32Z"></path><path class="cls-1" d="m68.02,75.08c.02-.28,0-.55-.34-.64-.45-.12-.79.05-1.01.37-.19.27-.09.57-.23.84-.13.25-.14.57.16.69.24.09.47.25.75.21.14-.02.25-.08.3-.26-.15-.18-.49-.15-.6-.47.3-.11.65-.05.96-.36,0-.12,0-.25,0-.38Zm-.55.15c-.15,0-.34.08-.4-.14-.02-.07,0-.18.04-.22.18-.16.35-.07.48.08.03.03.04.09.07.2-.09.04-.14.08-.19.08Z"></path><path class="cls-1" d="m64.75,75.86c0,.12.06.2.24.19.26-.37.23-.89.57-1.32.23.16.39.27.26.54-.15.3-.1.62-.03,1.04.44-.65.41-1.32.64-2.01-.51.07-.81-.23-1.14-.53-.44.67-.55,1.36-.54,2.09Z"></path><path class="cls-1" d="m48.41,74.31c.08.29.29.36.7.25-.31-1.03-.37-2.07-.75-3.03-.28.05-.41.1-.36.37.11.54.26,1.08.25,1.64,0,.26.09.52.16.77Z"></path><path class="cls-1" d="m7.28,73.72c0-.2-.16-.26-.34-.26-.26,0-.52,0-.81,0,.02.82-.07,1.56.07,2.27.3.07.46,0,.46-.3,0-.45,0-.9,0-1.34.08-.11.18-.12.29-.12.18,0,.34-.06.34-.26Z"></path><path class="cls-1" d="m25.27,73.38c-.14.6-.64,1.13-.49,1.82.44.19.54-.17.6-.37.14-.46.32-.89.5-1.33.01-.03-.03-.09-.05-.14-.18-.08-.35-.08-.57.02Z"></path><path class="cls-1" d="m63.99,74.59c.15-.27.79-.19.57-.74-.24-.08-.46-.15-.68-.22-.46,1.26-.49,1.5-.29,2.1q.35-.23.4-1.14Z"></path><path class="cls-1" d="m10.03,73.6c-.11.19-.18.38-.17.61.02.4,0,.81,0,1.21,0,.04.05.09.07.13.13.05.25.08.42-.09,0-.26,0-.58,0-.9,0-.34.03-.68.16-.99-.21-.16-.38-.19-.5.03Z"></path><path class="cls-1" d="m45.01,52.77c-.22-.02-.38.21-.49.42.35.16.4.16,1.47-.18-.27-.45-.66-.21-.97-.24Z"></path><path class="cls-1" d="m27.84,62.68c.02-.08,0-.15-.09-.18-.2.11-.46.15-.55.44.08.22.17.45.26.67l.17-.02c.07-.3.15-.61.22-.91Z"></path><path class="cls-1" d="m26.37,72.5c0-.21-.15-.32-.39-.31-.14.21-.14.42,0,.63.24,0,.38-.11.38-.32Z"></path><path class="cls-1" d="m32.37,6.7c.07-.32-.11-.53-.32-.86q-.17.55.32.86Z"></path><path class="cls-1" d="m47.61,47.42s0-.02,0-.03c0,0,0,0,0,0,0,0-.02.02-.02.03,0,0,.02,0,.03,0Z"></path><path class="cls-1" d="m47.31,47.88c.32.06.6.1.74-.22-.06-.28-.27-.22-.44-.24.07.24-.24.26-.3.46Z"></path><path class="cls-1" d="m30.22,48.89c.11-.3-.04-.43-.25-.51-.08-.03-.16.03-.17.1-.03.22.12.32.3.39.02,0,.05,0,.12.01Z"></path><path class="cls-1" d="m10.39,72.98c.08,0,.12-.05.12-.15,0-.14-.09-.16-.19-.16-.07.03-.13.06-.13.15,0,.14.09.17.2.16Z"></path><path class="cls-1" d="m48.61,35.29c-.09.21-.09.4.03.59.1-.08.11-.18.09-.28-.02-.1.05-.25-.13-.3Z"></path><path class="cls-1" d="m87.69,31.56c.91-.28,1.73-.67,2.48-1.17.75-.49,1.4-1.1,1.96-1.81.56-.71,1-1.49,1.32-2.35.2-.54.34-1.18.43-1.93s.13-1.57.13-2.45V.84h-7.31v20.89c0,2.33-.68,3.5-2.05,3.5-.62,0-1.14-.27-1.57-.8s-.7-1.26-.82-2.17l-4.77,5.26c1.89,2.97,4.34,4.46,7.35,4.46.99,0,1.95-.14,2.85-.42Z"></path><path class="cls-1" d="m118.13,31.14h7.79L115.23.84h-7.98l-10.7,30.29h7.79l1.68-5.26h10.44l1.68,5.26Zm-10.18-11.25l3.28-10.09,3.28,10.09h-6.56Z"></path><path class="cls-1" d="m143.68,18.72c2.01-.51,3.54-1.48,4.57-2.91,1.03-1.43,1.55-3.3,1.55-5.61,0-1.29-.19-2.49-.58-3.62-.39-1.12-.96-2.12-1.72-2.97-.76-.86-1.72-1.53-2.89-2.03-1.17-.49-2.53-.74-4.1-.74h-11.37v30.29h7.31v-11.65l6.97,11.65h9.1l-8.84-12.41Zm-2.53-5.3c-.77.64-1.88.97-3.32.97h-1.38v-7.47h1.38c1.44,0,2.55.32,3.32.97.77.64,1.16,1.57,1.16,2.77s-.39,2.13-1.16,2.77Z"></path><path class="cls-1" d="m179.16,21.72c.71-1.83,1.06-3.74,1.06-5.73s-.36-3.93-1.08-5.77c-.72-1.83-1.71-3.44-2.97-4.82-1.26-1.38-2.72-2.48-4.4-3.31-1.68-.83-3.48-1.24-5.39-1.24h-10.81v30.29h10.81c1.94,0,3.75-.41,5.43-1.25,1.68-.83,3.15-1.94,4.4-3.33,1.26-1.39,2.24-3.01,2.95-4.84Zm-7.12-2.33c-.36,1.03-.88,1.92-1.57,2.67-.68.75-1.52,1.34-2.52,1.77-.99.43-2.13.64-3.39.64h-1.68V7.51h1.68c1.24,0,2.36.22,3.36.64.99.43,1.83,1.02,2.52,1.77.68.75,1.21,1.65,1.58,2.69.37,1.05.56,2.17.56,3.38s-.18,2.36-.54,3.39Z"></path><rect class="cls-1" x="184.88" y=".84" width="7.31" height="30.29"></rect><polygon class="cls-1" points="205.39 12.62 218.89 31.14 226.16 31.14 226.16 .84 218.89 .84 218.89 19.37 205.39 .84 198.08 .84 198.08 31.14 205.39 31.14 205.39 12.62"></polygon><path class="cls-1" d="m260.51,30.58c1.19-.38,2.21-.94,3.04-1.69.83-.75,1.48-1.67,1.94-2.77.46-1.1.69-2.36.69-3.78,0-.91-.1-1.77-.3-2.57-.2-.8-.53-1.53-.99-2.17-.46-.64-1.06-1.18-1.79-1.63-.73-.44-1.62-.77-2.67-.98,1.04-.7,1.82-1.55,2.33-2.55.51-1,.76-2.27.76-3.8,0-2.52-.67-4.45-2.01-5.79-1.34-1.34-3.31-2.01-5.89-2.01h-10.89v30.29h11.75c1.49,0,2.83-.19,4.03-.56Zm-8.46-23.71h1.34c2.29,0,3.43.98,3.43,2.93s-1.14,2.93-3.43,2.93h-1.34v-5.87Zm0,18.16v-6.43h1.6c1.84,0,3.16.25,3.95.76.8.51,1.19,1.33,1.19,2.45s-.4,1.94-1.19,2.45c-.8.51-2.11.76-3.95.76h-1.6Z"></path><path class="cls-1" d="m295.81,4.62c-1.38-1.45-3.03-2.58-4.94-3.39s-4-1.23-6.27-1.23-4.38.41-6.28,1.23c-1.9.82-3.54,1.95-4.9,3.39-1.37,1.45-2.44,3.14-3.21,5.08-.77,1.94-1.16,4.04-1.16,6.29s.38,4.35,1.16,6.29c.77,1.94,1.84,3.64,3.21,5.08,1.37,1.45,3,2.58,4.9,3.39,1.9.82,4,1.23,6.28,1.23s4.35-.41,6.27-1.23c1.91-.82,3.56-1.95,4.94-3.39,1.38-1.45,2.45-3.14,3.23-5.08.77-1.94,1.16-4.04,1.16-6.29s-.39-4.35-1.16-6.29c-.77-1.94-1.85-3.63-3.23-5.08Zm-3.9,14.71c-.42,1.02-1,1.9-1.73,2.65-.73.75-1.58,1.33-2.53,1.75-.96.42-1.97.62-3.04.62s-2.08-.21-3.04-.62-1.8-1-2.52-1.75c-.72-.75-1.29-1.63-1.72-2.65-.42-1.02-.63-2.13-.63-3.34s.21-2.32.63-3.34c.42-1.02.99-1.9,1.72-2.65.72-.75,1.56-1.33,2.52-1.75.96-.42,1.97-.62,3.04-.62s2.08.21,3.04.62c.96.42,1.8,1,2.53,1.75.73.75,1.31,1.64,1.73,2.65.42,1.02.63,2.13.63,3.34s-.21,2.32-.63,3.34Z"></path><polygon class="cls-1" points="307.87 31.14 315.18 31.14 315.18 7.51 321.18 7.51 321.18 .84 301.87 .84 301.87 7.51 307.87 7.51 307.87 31.14"></polygon><path class="cls-1" d="m328.23,31.14l1.68-5.26h10.44l1.68,5.26h7.79l-10.7-30.29h-7.98l-10.7,30.29h7.79Zm6.9-21.34l3.28,10.09h-6.56l3.28-10.09Z"></path><polygon class="cls-1" points="360.34 12.62 373.84 31.14 381.11 31.14 381.11 .84 373.84 .84 373.84 19.37 360.34 .84 353.03 .84 353.03 31.14 360.34 31.14 360.34 12.62"></polygon><rect class="cls-1" x="387" y=".84" width="7.31" height="30.29"></rect><path class="cls-1" d="m429.12,21.82c.63-1.79.95-3.74.95-5.83,0-2.25-.39-4.35-1.16-6.29-.77-1.94-1.85-3.63-3.23-5.08-1.38-1.45-3.03-2.58-4.94-3.39s-4-1.23-6.27-1.23-4.38.41-6.28,1.23c-1.9.82-3.54,1.95-4.9,3.39-1.37,1.45-2.44,3.14-3.21,5.08-.77,1.94-1.16,4.04-1.16,6.29s.38,4.35,1.16,6.29c.77,1.94,1.84,3.64,3.21,5.08,1.37,1.45,3,2.58,4.9,3.39,1.9.82,4,1.23,6.28,1.23,1.37,0,2.67-.16,3.9-.46,1.23-.31,2.39-.73,3.49-1.27l2.57,2.85,6.71-1.12-4.77-5.38c1.19-1.39,2.11-2.99,2.74-4.78Zm-8.04-1.17l-1.94-2.21-6.9.92,4.18,4.74c-.65.16-1.29.24-1.94.24-1.07,0-2.08-.21-3.04-.62-.96-.42-1.8-1-2.52-1.75-.72-.75-1.29-1.63-1.72-2.65-.42-1.02-.63-2.13-.63-3.34s.21-2.32.63-3.34c.42-1.02.99-1.9,1.72-2.65.72-.75,1.56-1.33,2.52-1.75.96-.42,1.97-.62,3.04-.62s2.08.21,3.04.62c.96.42,1.8,1,2.53,1.75.73.75,1.31,1.64,1.73,2.65.42,1.02.63,2.13.63,3.34,0,1.77-.45,3.32-1.34,4.66Z"></path><path class="cls-1" d="m446.97,31.98c4.15,0,7.23-1.09,9.23-3.26,2-2.17,3-5.61,3-10.33V.84h-7.27v16.47c0,.88-.03,1.79-.09,2.71-.06.92-.26,1.76-.58,2.51-.32.75-.81,1.36-1.47,1.83-.66.47-1.6.7-2.82.7s-2.16-.23-2.83-.7c-.67-.47-1.16-1.08-1.47-1.83-.31-.75-.5-1.59-.56-2.51-.06-.92-.09-1.83-.09-2.71V.84h-7.31v17.56c0,4.71,1.01,8.16,3.02,10.33,2.01,2.17,5.1,3.26,9.25,3.26Z"></path><polygon class="cls-1" points="481.09 24.47 472.4 24.47 472.4 19.24 480.6 19.24 480.6 12.58 472.4 12.58 472.4 7.51 481.09 7.51 481.09 .84 465.09 .84 465.09 31.14 481.09 31.14 481.09 24.47"></polygon><path class="cls-1" d="m100.59,53.44c-1.25-1.37-2.7-2.46-4.37-3.29-1.66-.82-3.45-1.24-5.34-1.24h-10.73v30.05h10.73c1.92,0,3.72-.41,5.38-1.24,1.66-.82,3.12-1.93,4.36-3.31,1.25-1.38,2.22-2.98,2.92-4.8.7-1.82,1.05-3.71,1.05-5.68s-.36-3.9-1.07-5.72c-.72-1.82-1.7-3.41-2.94-4.78Zm-4.11,13.87c-.36,1.02-.88,1.91-1.55,2.65-.68.74-1.51,1.33-2.5,1.75-.99.43-2.11.64-3.37.64h-1.66v-16.82h1.66c1.23,0,2.34.21,3.33.64.99.43,1.82,1.01,2.5,1.75.68.75,1.2,1.64,1.57,2.67.37,1.04.55,2.15.55,3.35s-.18,2.34-.54,3.37Z"></path><path class="cls-1" d="m126.31,65.25c0,.88-.03,1.77-.09,2.69-.06.92-.25,1.75-.57,2.49-.32.75-.81,1.35-1.46,1.81-.65.46-1.58.7-2.79.7s-2.15-.23-2.81-.7c-.67-.46-1.15-1.07-1.46-1.81-.31-.74-.49-1.57-.55-2.49s-.09-1.81-.09-2.69v-16.34h-7.25v17.42c0,4.68,1,8.09,3,10.24,2,2.15,5.06,3.23,9.17,3.23s7.17-1.08,9.16-3.23c1.98-2.15,2.98-5.57,2.98-10.24v-17.42h-7.21v16.34Z"></path><path class="cls-1" d="m165.38,48.08c-1.95,0-3.81.39-5.59,1.18-1.78.78-3.34,1.87-4.68,3.27-1.34,1.4-2.42,3.06-3.22,4.98-.8,1.93-1.2,4.04-1.2,6.36s.41,4.44,1.22,6.4c.81,1.95,1.89,3.64,3.24,5.06,1.34,1.42,2.9,2.53,4.66,3.31,1.76.78,3.61,1.18,5.53,1.18.94,0,1.89-.1,2.85-.3.96-.2,2-.51,3.11-.94l.74-.28v-9.25c-1.85,2.13-3.93,3.19-6.25,3.19-1.06,0-2.05-.21-2.96-.64-.91-.43-1.71-1.01-2.39-1.75-.68-.74-1.21-1.62-1.59-2.63-.38-1.01-.57-2.11-.57-3.31s.19-2.26.57-3.27c.38-1.01.91-1.88,1.57-2.61.67-.73,1.46-1.31,2.39-1.73.92-.42,1.93-.64,3.01-.64,2.47,0,4.54,1.1,6.22,3.31v-9.33c-1.18-.53-2.31-.92-3.39-1.18-1.07-.25-2.16-.38-3.27-.38Z"></path><path class="cls-1" d="m202.31,52.66c-1.37-1.43-3-2.56-4.9-3.37-1.9-.81-3.97-1.21-6.21-1.21s-4.35.4-6.23,1.21c-1.89.81-3.51,1.93-4.86,3.37-1.36,1.43-2.42,3.12-3.18,5.04-.76,1.93-1.15,4.01-1.15,6.24s.38,4.31,1.15,6.24c.76,1.93,1.83,3.61,3.18,5.04,1.36,1.43,2.98,2.56,4.86,3.37,1.89.81,3.97,1.21,6.23,1.21s4.31-.4,6.21-1.21c1.9-.81,3.53-1.93,4.9-3.37,1.37-1.43,2.44-3.12,3.2-5.04.76-1.93,1.15-4.01,1.15-6.24s-.38-4.31-1.15-6.24c-.76-1.93-1.83-3.61-3.2-5.04Zm-3.87,14.59c-.42,1.01-.99,1.89-1.72,2.63-.73.74-1.57,1.32-2.52,1.73-.95.41-1.95.62-3.01.62s-2.07-.21-3.02-.62c-.95-.41-1.78-.99-2.5-1.73-.72-.74-1.28-1.62-1.7-2.63-.42-1.01-.63-2.11-.63-3.31s.21-2.3.63-3.31c.42-1.01.98-1.89,1.7-2.63.72-.74,1.55-1.32,2.5-1.73.95-.41,1.95-.62,3.02-.62s2.06.21,3.01.62c.95.41,1.79.99,2.52,1.73.73.74,1.3,1.62,1.72,2.63.42,1.01.63,2.11.63,3.31s-.21,2.3-.63,3.31Z"></path><polygon class="cls-1" points="218.5 48.91 211.25 48.91 211.25 78.97 227.19 78.97 227.19 72.35 218.5 72.35 218.5 48.91"></polygon><path class="cls-1" d="m263.94,53.44c-1.25-1.37-2.7-2.46-4.37-3.29-1.66-.82-3.45-1.24-5.34-1.24h-10.73v30.05h10.73c1.92,0,3.72-.41,5.38-1.24,1.66-.82,3.12-1.93,4.36-3.31,1.25-1.38,2.22-2.98,2.92-4.8.7-1.82,1.05-3.71,1.05-5.68s-.36-3.9-1.07-5.72c-.72-1.82-1.7-3.41-2.94-4.78Zm-4.11,13.87c-.36,1.02-.88,1.91-1.55,2.65-.68.74-1.51,1.33-2.5,1.75-.99.43-2.11.64-3.37.64h-1.66v-16.82h1.66c1.23,0,2.34.21,3.33.64.99.43,1.82,1.01,2.5,1.75.68.75,1.2,1.64,1.57,2.67.37,1.04.55,2.15.55,3.35s-.18,2.34-.54,3.37Z"></path><polygon class="cls-1" points="272.58 78.97 288.45 78.97 288.45 72.35 279.83 72.35 279.83 67.17 287.97 67.17 287.97 60.55 279.83 60.55 279.83 55.53 288.45 55.53 288.45 48.91 272.58 48.91 272.58 78.97"></polygon><path class="cls-1" d="m318.75,60.63c-.59-.21-1.19-.41-1.79-.6-.6-.19-1.15-.4-1.63-.66-.48-.25-.87-.55-1.17-.9s-.44-.78-.44-1.32c0-.77.3-1.4.89-1.87.59-.48,1.35-.72,2.29-.72.74,0,1.5.17,2.29.5.79.33,1.58.84,2.37,1.53l2.89-6.1c-1.38-.8-2.82-1.4-4.33-1.81-1.5-.41-2.95-.62-4.33-.62-1.48,0-2.82.24-4.01.72-1.2.48-2.21,1.15-3.03,2.01-.83.86-1.47,1.9-1.92,3.11-.46,1.21-.68,2.56-.68,4.05s.22,2.72.65,3.69c.43.97,1,1.77,1.7,2.41.7.64,1.5,1.15,2.4,1.53.9.39,1.82.74,2.76,1.06.79.29,1.46.56,2.02.8.55.24,1.01.5,1.35.78.35.28.59.59.74.92.15.33.22.73.22,1.18,0,.74-.29,1.41-.87,1.99-.58.59-1.46.88-2.65.88-1.04,0-2.08-.25-3.15-.76-1.06-.5-2.13-1.27-3.22-2.31l-3.11,6.3c3.01,2.26,6.28,3.39,9.8,3.39,1.7,0,3.22-.24,4.57-.74,1.34-.49,2.48-1.18,3.4-2.07.92-.89,1.63-1.96,2.11-3.21.48-1.25.72-2.64.72-4.19,0-2.29-.55-4.14-1.65-5.56-1.1-1.42-2.83-2.56-5.2-3.41Z"></path><path class="cls-1" d="m337.58,48.91l-10.62,30.05h7.73l1.66-5.22h10.36l1.66,5.22h7.73l-10.62-30.05h-7.92Zm.7,18.89l3.25-10,3.26,10h-6.51Z"></path><polygon class="cls-1" points="368.84 67.21 362.1 48.91 354.22 48.91 365.95 78.97 371.72 78.97 383.49 48.91 375.61 48.91 368.84 67.21"></polygon><polygon class="cls-1" points="386.41 78.97 402.28 78.97 402.28 72.35 393.66 72.35 393.66 67.17 401.8 67.17 401.8 60.55 393.66 60.55 393.66 55.53 402.28 55.53 402.28 48.91 386.41 48.91 386.41 78.97"></polygon><path class="cls-1" d="m426.45,63.76c1.02-1.42,1.54-3.28,1.54-5.56,0-1.28-.19-2.47-.57-3.59-.38-1.12-.95-2.1-1.7-2.95-.75-.85-1.71-1.52-2.87-2.01-1.16-.49-2.52-.74-4.07-.74h-11.28v30.05h7.25v-11.56l6.92,11.56h9.03l-8.77-12.32c2-.51,3.51-1.47,4.53-2.89Zm-7.05-2.37c-.76.64-1.86.96-3.29.96h-1.37v-7.41h1.37c1.43,0,2.53.32,3.29.96.76.64,1.15,1.56,1.15,2.75s-.38,2.11-1.15,2.75Z"></path><polygon class="cls-1" points="454.36 67.29 440.97 48.91 433.72 48.91 433.72 78.97 440.97 78.97 440.97 60.59 454.36 78.97 461.58 78.97 461.58 48.91 454.36 48.91 454.36 67.29"></polygon><polygon class="cls-1" points="483.29 55.53 483.29 48.91 467.42 48.91 467.42 78.97 483.29 78.97 483.29 72.35 474.67 72.35 474.67 67.17 482.81 67.17 482.81 60.55 474.67 60.55 474.67 55.53 483.29 55.53"></polygon></g></svg>