<svg xmlns="http://www.w3.org/2000/svg" id="Calque_2" viewBox="0 0 279.9 65.16"><defs><style>.cls-1{fill:#c1ac9f;stroke-width:0px;}</style></defs><g id="Calque_1-2"><path class="cls-1" d="M44.52,42.73c.22-.45.31-.95.26-1.46-.16-1.47-1.49-2.54-2.96-2.39l-2.52.27c0-.11,0-.21,0-.32-.05-.5-.32-.9-.72-1.12-.64-.34-1.98-1.06-4.83-.76-.38.04-.74.1-1.09.18.1-2.55.29-4.81.49-6.62.29-.57.55-1.26.74-2.04,1.14-4.71-.25-8.25-.25-8.25,0,0-1.43,1.2-2.99,7.71-1.07,4.48.32,5.28,1.67,3.81-.16,1.62-.29,3.51-.37,5.57-2.01.56-3.67,1.62-5.29,2.66-1.93,1.24-3.77,2.41-6.15,2.79-.2-.58-.78-.98-1.42-.91l-.45.05c-.74.08-1.28.75-1.2,1.49l1.24,11.54c.08.74.75,1.28,1.49,1.2l.45-.05c.68-.07,1.18-.63,1.2-1.29.85.06,1.88.41,3.03.82,1.94.68,4.15,1.45,6.58,1.19l2.36-.25c.31,1.15.66,2.28,1.07,3.39.05.13.16.21.28.22.05,0,.11,0,.17-.02.18-.07.27-.27.2-.45-.39-1.05-.72-2.13-1.02-3.22l1.22-.13s.08,0,.11,0l5.27-.56c1.47-.16,2.54-1.49,2.39-2.96-.05-.43-.19-.83-.42-1.18,1.05-.46,1.72-1.56,1.6-2.75-.04-.4-.17-.77-.38-1.1,1.21-.37,2.03-1.56,1.89-2.86-.11-.99-.76-1.82-1.65-2.19ZM20.49,54.97l-.45.05c-.13.01-.25-.08-.26-.21l-1.24-11.54c-.01-.13.08-.25.21-.26l.45-.05c.13-.01.25.08.26.21l.03.28h0s.98,9.19.98,9.19l.22,2.07c.01.13-.08.25-.21.26ZM43.66,46.77l-.59.06-3.31.35c-.31.03-.53.31-.5.61.03.31.31.53.61.5l3.09-.33c.32.26.54.63.58,1.04.09.86-.53,1.64-1.4,1.73l-.25.03-2.17.23c-.31.03-.53.31-.5.61.03.31.31.53.61.5l1.94-.21c.32.26.54.63.58,1.03.09.86-.53,1.64-1.4,1.73l-5.25.56s-.05,0-.08,0c-.01,0-.02,0-.03,0l-4.31.46c-2.19.23-4.27-.49-6.1-1.13-1.3-.45-2.45-.86-3.5-.89l-.12-1.14-.93-8.64c2.63-.42,4.65-1.71,6.6-2.97,2.06-1.32,4-2.57,6.6-2.84,2.51-.27,3.64.34,4.18.63.1.05.13.17.14.26.01.1-.01.21-.05.32l-4.49.48c-.31.03-.53.31-.5.61.03.31.31.53.61.5l4.81-.51,3.36-.36c.86-.09,1.64.53,1.73,1.4.05.42-.1.84-.37,1.17l-2.91.31c-.31.03-.53.31-.5.61.03.31.31.53.61.5l3.08-.33c.77.04,1.4.63,1.48,1.39.09.86-.53,1.64-1.4,1.73Z"></path><path class="cls-1" d="M35.18,60.31s-.04,0-.06,0c-.19-.02-.34-.15-.41-.33-.37-1-.71-2.07-1.04-3.27l-2.22.24c-2.48.27-4.69-.51-6.65-1.2-1.04-.36-2.02-.71-2.84-.79-.1.67-.65,1.21-1.33,1.28l-.45.05c-.82.09-1.58-.51-1.66-1.34l-1.24-11.54c-.04-.4.07-.79.33-1.11s.61-.51,1.02-.55l.45-.05c.66-.07,1.27.29,1.54.89,2.32-.4,4.18-1.59,5.97-2.74,1.51-.97,3.21-2.06,5.22-2.65.06-1.67.17-3.37.32-5.04-.48.41-.96.53-1.34.33-.78-.42-.89-2.09-.29-4.58,1.55-6.49,2.98-7.74,3.04-7.79l.17-.14.08.2s1.39,3.64.25,8.34c-.18.74-.43,1.43-.74,2.04-.23,2.12-.39,4.26-.48,6.38.31-.06.61-.11.91-.14,2.9-.31,4.26.42,4.92.77.45.24.74.7.8,1.24,0,.05,0,.1.01.16l2.34-.25c.75-.08,1.5.14,2.09.62.59.48.96,1.16,1.04,1.91.05.48-.02.96-.21,1.4.89.43,1.49,1.28,1.6,2.25.14,1.29-.62,2.51-1.82,2.96.16.31.26.65.3,1,.13,1.18-.48,2.3-1.53,2.83.19.33.31.71.35,1.09.08.75-.14,1.5-.61,2.09-.48.59-1.16.96-1.91,1.04l-5.27.56s-.09,0-.14,0l-1.01.11c.31,1.12.62,2.11.97,3.03.05.13.04.26-.01.39s-.16.22-.28.26c-.06.02-.12.03-.18.03ZM33.9,56.37l.04.13c.34,1.25.69,2.35,1.07,3.37.02.07.08.11.15.12.03,0,.06,0,.09-.01.05-.02.09-.05.11-.1s.02-.1,0-.15c-.36-.98-.7-2.03-1.02-3.23l-.05-.18,1.4-.15c.05,0,.08,0,.11,0l5.27-.56c.67-.07,1.27-.4,1.7-.93s.62-1.19.55-1.86c-.04-.39-.18-.78-.4-1.11l-.1-.16.17-.07c1.02-.45,1.62-1.49,1.5-2.59-.04-.37-.16-.72-.35-1.04l-.11-.17.19-.06c1.16-.35,1.91-1.48,1.78-2.69-.1-.91-.69-1.7-1.55-2.06l-.16-.06.07-.15c.21-.43.3-.9.25-1.37-.07-.67-.4-1.27-.93-1.7s-1.18-.62-1.86-.55l-2.71.29v-.19c.02-.1.02-.2,0-.29-.05-.44-.28-.81-.64-1-.63-.34-1.94-1.04-4.74-.74-.35.04-.7.09-1.08.17l-.2.04v-.2c.09-2.2.26-4.44.5-6.64l.02-.05c.31-.6.55-1.27.73-2,.95-3.9.12-7.03-.15-7.91-.41.53-1.56,2.35-2.78,7.44-.65,2.72-.36,3.97.13,4.23.32.17.79-.04,1.27-.57l.32-.35-.04.47c-.18,1.85-.3,3.72-.37,5.56v.11s-.11.03-.11.03c-2.01.57-3.73,1.67-5.25,2.64-1.85,1.19-3.77,2.42-6.21,2.81l-.13.02-.04-.12c-.18-.53-.7-.86-1.26-.8l-.45.05c-.32.03-.6.19-.8.44-.2.25-.29.56-.26.88l1.24,11.54c.03.32.19.6.44.8.25.2.56.29.88.26l.45-.05c.58-.06,1.04-.55,1.06-1.14v-.16s.17.01.17.01c.89.06,1.95.43,3.07.82,1.93.67,4.11,1.44,6.52,1.18l2.49-.27ZM30.45,55.88c-1.9,0-3.69-.62-5.29-1.19-1.3-.46-2.43-.85-3.45-.88h-.14s-.14-1.28-.14-1.28l-.94-8.79.15-.02c2.6-.41,4.6-1.7,6.54-2.94,2.07-1.33,4.03-2.59,6.67-2.87,2.55-.28,3.72.35,4.28.65.12.07.2.2.22.38.01.11,0,.24-.06.39l-.03.1-4.59.49c-.22.02-.38.22-.36.44.01.11.06.2.15.27.08.07.19.1.29.09l8.17-.88c.46-.05.91.08,1.27.37.36.29.59.7.63,1.16.05.46-.1.92-.41,1.29l-.04.05-2.98.32c-.22.02-.38.22-.36.44.01.11.06.2.15.27.08.07.18.1.29.09l3.08-.33c.87.04,1.57.7,1.65,1.53.1.95-.59,1.8-1.54,1.9l-3.9.42c-.11.01-.2.06-.27.15-.07.08-.1.19-.09.29.02.22.22.38.44.36l3.15-.34.05.04c.36.29.59.7.64,1.14.05.46-.08.91-.37,1.27-.29.36-.7.59-1.16.63l-2.41.26c-.22.02-.38.22-.36.44.01.11.06.2.15.27.08.07.19.1.29.09l2.01-.22.05.04c.36.3.59.7.64,1.14.1.95-.59,1.8-1.54,1.9l-5.25.56s-.06,0-.08,0l-4.33.46c-.29.03-.59.05-.88.05ZM21.86,53.51c1.03.06,2.14.45,3.41.89,1.82.64,3.87,1.35,6.03,1.12l4.34-.46s.06,0,.09,0l5.23-.56c.78-.08,1.34-.78,1.26-1.56-.04-.34-.2-.65-.47-.89l-1.87.2c-.19.02-.38-.03-.52-.15-.15-.12-.24-.29-.26-.48-.04-.39.24-.75.63-.79l2.41-.26c.38-.04.71-.22.95-.52.24-.29.35-.66.31-1.04-.04-.34-.2-.65-.47-.89l-3.02.32c-.4.04-.75-.24-.79-.63-.02-.19.03-.38.15-.52.12-.15.29-.24.48-.26l3.9-.42c.38-.04.71-.22.95-.52.24-.29.35-.66.31-1.04-.07-.68-.65-1.22-1.33-1.25l-3.05.33c-.19.02-.38-.03-.52-.15-.15-.12-.24-.29-.26-.48-.04-.39.24-.74.63-.79l2.85-.3c.23-.3.34-.65.3-1-.04-.38-.22-.71-.52-.95-.29-.24-.66-.35-1.04-.31l-8.17.88c-.19.02-.38-.03-.52-.15-.15-.12-.24-.29-.26-.48-.04-.39.24-.74.63-.79l4.39-.47c.01-.06.02-.11.01-.16,0-.07-.03-.12-.06-.13-.53-.28-1.63-.88-4.09-.61-2.56.27-4.49,1.51-6.53,2.82-1.93,1.24-3.92,2.52-6.51,2.96l1.02,9.5ZM20.02,55.18c-.09,0-.18-.03-.25-.09-.08-.07-.13-.16-.15-.27l-1.24-11.54c-.01-.11.02-.21.09-.29.07-.08.16-.13.27-.15l.45-.05c.1-.01.21.02.29.09s.13.16.15.27l1.24,11.54c.02.22-.13.41-.35.44h0l-.45.05s-.03,0-.04,0ZM20.49,54.97h0,0ZM19.23,43.12h0l-.45.05s-.08.05-.07.09l1.23,11.54s.05.07.09.07l.45-.05s.08-.05.07-.09l-1.24-11.54s-.05-.07-.08-.07Z"></path><path class="cls-1" d="M32.94,17.6s-.29-1.84-5.08-6.52c-4.79-4.68-5.58-.89-2.13,2.5,3.45,3.39,7.21,4.02,7.21,4.02Z"></path><path class="cls-1" d="M33.13,17.79l-.22-.04s-3.84-.68-7.29-4.07c-1.98-1.95-2.58-4-1.89-4.7.68-.69,2.27.05,4.24,1.98,4.77,4.66,5.11,6.54,5.12,6.61l.03.22ZM24.4,9.05c-.2,0-.35.06-.45.16-.5.51-.02,2.38,1.89,4.26,2.86,2.81,5.96,3.71,6.86,3.93-.24-.63-1.22-2.55-4.96-6.2-1.63-1.59-2.73-2.14-3.35-2.14Z"></path><path class="cls-1" d="M42.33,23.85c-3.45-3.39-7.21-4.02-7.21-4.02,0,0,.29,1.84,5.08,6.52,4.79,4.68,5.58.89,2.13-2.5Z"></path><path class="cls-1" d="M43.67,28.69c-.82,0-2.09-.78-3.58-2.23-4.77-4.66-5.11-6.54-5.12-6.61l-.03-.22.22.04s3.84.68,7.29,4.07c1.98,1.95,2.58,4,1.89,4.7-.17.17-.39.26-.66.26ZM35.36,20.03c.24.63,1.22,2.55,4.96,6.2,2.16,2.11,3.4,2.39,3.79,1.98.5-.51.02-2.38-1.89-4.26-2.86-2.81-5.96-3.71-6.86-3.93Z"></path><path class="cls-1" d="M28.9,27.01c3.39-3.45,4.02-7.21,4.02-7.21,0,0-1.84.29-6.52,5.08-4.68,4.79-.89,5.58,2.5,2.13Z"></path><path class="cls-1" d="M25.12,29.29c-.35,0-.63-.09-.81-.27-.69-.68.05-2.26,1.98-4.24,4.66-4.77,6.54-5.11,6.61-5.12l.22-.03-.04.22s-.68,3.84-4.07,7.29h0c-1.43,1.46-2.92,2.17-3.89,2.17ZM32.71,20.04c-.63.24-2.55,1.22-6.2,4.96-2.11,2.16-2.39,3.4-1.98,3.79.51.5,2.38.02,4.26-1.89h0c2.81-2.86,3.71-5.96,3.93-6.86ZM28.9,27.01h0,0Z"></path><path class="cls-1" d="M41.67,12.54c4.68-4.79.89-5.58-2.5-2.13-3.39,3.45-4.02,7.21-4.02,7.21,0,0,1.84-.29,6.52-5.08Z"></path><path class="cls-1" d="M34.96,17.81l.04-.22s.68-3.84,4.07-7.29c1.95-1.98,4-2.58,4.7-1.89.69.68-.05,2.26-1.98,4.24h0c-4.66,4.77-6.54,5.11-6.61,5.12l-.22.03ZM42.95,8.45c-.83,0-2.24.62-3.67,2.07-2.81,2.86-3.71,5.96-3.93,6.86.63-.24,2.55-1.22,6.2-4.96h0c2.11-2.16,2.39-3.4,1.98-3.79-.12-.12-.33-.19-.59-.19ZM41.67,12.54h0,0Z"></path><path class="cls-1" d="M33.59,17.21s.61-1.76-1.41-8.15c-2.02-6.38-4.5-3.42-3.05,1.2,1.45,4.62,4.46,6.94,4.46,6.94Z"></path><path class="cls-1" d="M33.67,17.47l-.17-.13s-3.07-2.41-4.52-7.02c-.83-2.65-.39-4.75.54-5.04.92-.29,1.98,1.11,2.81,3.74,2.01,6.36,1.43,8.17,1.41,8.25l-.07.21ZM29.76,5.56c-.05,0-.1,0-.14.02-.68.21-1.14,2.09-.34,4.65,1.2,3.83,3.51,6.08,4.21,6.7.08-.67.12-2.82-1.45-7.81-.84-2.65-1.71-3.56-2.27-3.56Z"></path><path class="cls-1" d="M38.94,27.15c-1.45-4.62-4.46-6.94-4.46-6.94,0,0-.61,1.76,1.41,8.15,2.02,6.38,4.5,3.42,3.05-1.2Z"></path><path class="cls-1" d="M38.3,32.18c-.86,0-1.8-1.37-2.56-3.78-2.01-6.36-1.43-8.17-1.41-8.25l.07-.21.17.13s3.07,2.41,4.52,7.02h0c.83,2.65.39,4.75-.54,5.04-.08.03-.16.04-.25.04ZM34.58,20.5c-.08.67-.12,2.82,1.45,7.81.91,2.88,1.87,3.71,2.42,3.53.68-.21,1.14-2.09.34-4.65-1.2-3.83-3.51-6.08-4.21-6.7Z"></path><path class="cls-1" d="M32.54,19.15s-1.76-.61-8.15,1.41c-6.38,2.02-3.42,4.5,1.2,3.05,4.62-1.45,6.94-4.46,6.94-4.46Z"></path><path class="cls-1" d="M23,24.2c-1.31,0-2.21-.39-2.4-.98-.29-.93,1.11-1.98,3.74-2.81,6.36-2.01,8.17-1.43,8.25-1.41l.21.07-.13.17s-2.41,3.07-7.02,4.52c-.98.31-1.88.44-2.64.44ZM31.64,19.23c-1.06,0-3.23.23-7.2,1.49-2.88.91-3.71,1.87-3.53,2.42.21.68,2.09,1.14,4.65.34,3.83-1.2,6.08-3.51,6.7-4.21-.14-.02-.33-.03-.6-.03Z"></path><path class="cls-1" d="M35.53,18.27s1.76.61,8.15-1.41c6.38-2.02,3.42-4.5-1.2-3.05-4.62,1.45-6.94,4.46-6.94,4.46Z"></path><path class="cls-1" d="M36.44,18.52c-.66,0-.93-.09-.96-.1l-.21-.07.13-.17s2.41-3.07,7.02-4.52c2.65-.83,4.75-.39,5.04.54.29.93-1.11,1.98-3.74,2.81-3.98,1.26-6.18,1.5-7.29,1.5ZM35.83,18.17c.67.08,2.82.12,7.81-1.45,2.88-.91,3.71-1.87,3.53-2.42-.21-.68-2.09-1.14-4.65-.34-3.83,1.2-6.08,3.51-6.69,4.21Z"></path><path class="cls-1" d="M37.42,9.49c1.56-6.51-2.1-5.25-3.24-.54-1.14,4.71.25,8.25.25,8.25,0,0,1.43-1.2,2.99-7.71Z"></path><path class="cls-1" d="M34.36,17.46l-.08-.2s-1.39-3.64-.25-8.34c.65-2.7,2.12-4.26,3.06-4.04.94.23,1.12,1.97.48,4.65-1.55,6.49-2.98,7.74-3.04,7.79l-.17.14ZM36.9,5.17c-.72,0-1.97,1.36-2.56,3.82-.94,3.9-.12,7.02.16,7.91.41-.53,1.56-2.36,2.78-7.44.7-2.94.31-4.14-.25-4.27-.04,0-.08-.01-.12-.01Z"></path><path class="cls-1" d="M24.27,18.56c4.71,1.14,8.25-.25,8.25-.25,0,0-1.2-1.43-7.71-2.99-6.51-1.56-5.25,2.1-.54,3.24Z"></path><path class="cls-1" d="M28.01,19.17c-1.12,0-2.4-.12-3.78-.45h0c-2.7-.65-4.27-2.11-4.04-3.06.23-.94,1.97-1.12,4.65-.48,6.49,1.55,7.74,2.98,7.79,3.04l.14.17-.2.08s-1.84.7-4.57.7ZM24.31,18.41c3.9.94,7.03.12,7.91-.15-.53-.41-2.36-1.56-7.44-2.78-2.94-.7-4.14-.31-4.27.25-.17.69,1.2,2.05,3.81,2.68h0Z"></path><path class="cls-1" d="M43.79,18.86c-4.71-1.14-8.25.25-8.25.25,0,0,1.2,1.43,7.71,2.99,6.51,1.56,5.25-2.1.54-3.24Z"></path><path class="cls-1" d="M45.93,22.63c-.73,0-1.65-.13-2.71-.38-6.49-1.55-7.74-2.98-7.79-3.04l-.14-.17.2-.08s3.65-1.39,8.34-.25c2.7.65,4.27,2.11,4.04,3.06-.14.57-.83.86-1.94.86ZM35.85,19.17c.53.41,2.36,1.56,7.44,2.78,2.94.7,4.14.31,4.27-.25.17-.69-1.2-2.05-3.81-2.68-3.9-.95-7.03-.12-7.91.15Z"></path><path class="cls-1" d="M33.75,20c.73.09,1.39-.42,1.49-1.15.09-.73-.42-1.39-1.15-1.49-.73-.09-1.39.42-1.49,1.15-.09.73.42,1.39,1.15,1.49Z"></path><path class="cls-1" d="M33.93,20.17c-.06,0-.13,0-.19-.01-.39-.05-.74-.25-.99-.57-.24-.31-.35-.7-.3-1.1s.25-.74.57-.99c.31-.24.71-.35,1.1-.3.81.11,1.39.85,1.28,1.66-.05.39-.25.74-.57.99-.26.2-.58.31-.9.31ZM33.92,17.52c-.26,0-.5.08-.71.24-.25.19-.41.47-.45.78-.04.31.04.62.23.86.19.25.47.41.78.45h0c.31.04.62-.04.86-.23.25-.19.41-.47.45-.78.08-.64-.37-1.23-1.01-1.31-.05,0-.1-.01-.15-.01Z"></path><path class="cls-1" d="M32.58.16C14.7.16.16,14.7.16,32.58s14.54,32.42,32.42,32.42,32.42-14.54,32.42-32.42S50.46.16,32.58.16ZM63.04,32.58c0,7.71-2.89,14.76-7.63,20.13L12.45,9.75c5.37-4.74,12.42-7.63,20.13-7.63,16.79,0,30.46,13.66,30.46,30.46ZM2.12,32.58c0-7.71,2.89-14.76,7.63-20.13l42.96,42.96c-5.37,4.74-12.42,7.63-20.13,7.63-16.79,0-30.46-13.66-30.46-30.46Z"></path><path class="cls-1" d="M32.58,65.16C14.62,65.16,0,50.54,0,32.58S14.62,0,32.58,0s32.58,14.62,32.58,32.58-14.62,32.58-32.58,32.58ZM32.58.31C14.79.31.31,14.79.31,32.58s14.47,32.27,32.27,32.27,32.27-14.47,32.27-32.27S50.37.31,32.58.31ZM32.58,63.19c-16.88,0-30.61-13.73-30.61-30.61,0-7.45,2.72-14.63,7.67-20.24l.11-.13.12.12,43.08,43.08-.13.11c-5.6,4.95-12.79,7.67-20.24,7.67ZM9.76,12.68c-4.82,5.52-7.48,12.59-7.48,19.9,0,16.71,13.59,30.3,30.3,30.3,7.32,0,14.38-2.66,19.9-7.48L9.76,12.68ZM55.41,52.94l-.12-.12L12.22,9.75l.13-.11c5.6-4.95,12.79-7.67,20.24-7.67,16.88,0,30.61,13.73,30.61,30.61,0,7.45-2.72,14.63-7.67,20.24l-.11.13ZM12.68,9.76l42.72,42.72c4.82-5.53,7.48-12.59,7.48-19.9,0-16.71-13.59-30.3-30.3-30.3-7.32,0-14.38,2.66-19.9,7.48Z"></path><path class="cls-1" d="M119.65,56.66c.38,0,.73-.25.86-.63.36-1.13-.47-2.2-1.49-2.58-.72-.27-1.43-.26-1.95-.42-2.05-.62-2.17-3.92-2.06-5.84.15-2.53.3-5.14,1.26-7.46.53-1.27,1.34-2.55,1.62-4.08.51-2.76-.63-5.39-1.06-7.9-.31-1.84.05-4.05.47-5.14.15-.38.5-.64.89-.72.18-.04.37-.08.55-.12.86-.19,1.83-.4,3.19-.42,1.07,0,1.9-1.31,2.09-2.55.21-1.33-.37-2.39-1.49-2.75-.98-.32-1.94-.11-2.61-.3-.85-.24-1.52-1.21-2.32-2.03-.91-.93-2.04-1.46-3.04-1.42l-.35-3.42c-.04-.42-.32-.79-.73-.89-.5-.12-.98.16-1.13.63-.37,1.14-1.75,3.33-2.46,4.15-2.09,2.43-3.07,4.91-3.26,8.29-.09,1.67-1.27,3.48-2.64,5.59-1.29,1.99-2.74,4.24-3.74,6.99-.95,2.63-2.6,4.48-4.55,6.13-4.19,3.55-4.78,5.87-4.78,9.96,0,2.75-.75,3.39-.83,3.46-.89.67-2.19.68-3.09.04-1.54-1.1-1.21-4.18.9-4.46.77.32,1.48-.5,1.17-1.21-.18-.42-.58-.61-1.18-.58-3.83.18-4.9,5.59-1.94,7.71,1.54,1.1,3.69,1.08,5.21-.06,1.01-.76,1.55-2.45,1.55-4.89,0-3.5.31-5.33,4.15-8.59,2.19-1.86,4.03-3.98,5.08-6.89.92-2.56,2.32-4.72,3.55-6.63,1.5-2.32,2.8-4.32,2.92-6.46.17-2.95,1.01-5.11,2.83-7.22.39-.45.95-1.25,1.47-2.11l.08.73c.09.91.9,1.59,1.8,1.52.47-.04,1.17.31,1.73.88.83.85,1.68,2.09,3.11,2.5.96.28,1.9.08,2.55.29.13.04.26.11.29.39.07.55-.1,1.29-.48,1.43-1.47.03-2.56.26-3.43.46-.37.08-.7.16-1.04.2-.46.07-.86.34-1.2.8-.98,1.34-1.47,4.62-1.06,7.02.44,2.56,1.49,4.98,1.07,7.28-.23,1.24-.97,2.41-1.51,3.72-1.07,2.6-1.24,5.49-1.39,8.04-.32,5.4,1.63,7.14,3.33,7.65.69.21,1.36.2,1.84.38.24.09.41.3.42.38-.19.58.25,1.16.85,1.16Z"></path><path class="cls-1" d="M118.74,56.43c-.19-.27-.26-.59-.19-.91-.04-.05-.13-.13-.24-.17-.21-.08-.48-.12-.79-.16-.31-.05-.67-.1-1.03-.21-1.78-.54-3.82-2.34-3.5-7.9.15-2.57.32-5.48,1.41-8.12.18-.44.38-.86.58-1.27.4-.83.77-1.6.92-2.4.28-1.53-.12-3.13-.54-4.82-.19-.77-.39-1.56-.53-2.37-.42-2.45.1-5.81,1.11-7.2.38-.52.84-.83,1.36-.9.31-.05.64-.12,1.02-.2.87-.19,1.95-.43,3.43-.46.19-.11.35-.65.29-1.15-.02-.15-.05-.16-.12-.18-.27-.09-.61-.1-1-.1-.47-.01-1-.02-1.54-.18-1.21-.35-2.01-1.23-2.71-2.02-.17-.19-.34-.38-.5-.54-.49-.5-1.13-.84-1.53-.81-1.03.08-1.96-.69-2.06-1.74v-.03c-.41.62-.81,1.17-1.12,1.53-1.78,2.07-2.61,4.18-2.77,7.08-.12,2.2-1.44,4.23-2.96,6.58-1.23,1.89-2.62,4.04-3.53,6.57-.94,2.61-2.53,4.77-5.15,6.99-3.7,3.14-4.07,4.88-4.07,8.4,0,2.52-.57,4.28-1.65,5.09-1.61,1.2-3.87,1.23-5.5.06-1.77-1.27-2.08-3.49-1.59-5.13.53-1.78,1.93-2.94,3.67-3.02.89-.04,1.26.37,1.41.73.19.44.09.94-.25,1.29-.31.32-.76.42-1.18.28-1.07.17-1.41,1.09-1.51,1.49-.25.98.07,2.01.78,2.52.82.58,2,.57,2.8-.03,0,0,.74-.58.74-3.26,0-4.24.68-6.59,4.87-10.14,1.55-1.31,3.46-3.19,4.48-6.03,1-2.78,2.47-5.04,3.76-7.04,1.34-2.08,2.51-3.87,2.6-5.47.19-3.44,1.19-5.96,3.32-8.43.69-.81,2.05-2.95,2.41-4.07.19-.6.8-.94,1.42-.8.49.12.86.56.92,1.1l.33,3.2c1,.04,2.1.58,2.99,1.49.2.2.39.41.57.62.55.61,1.06,1.18,1.64,1.35.26.07.58.08.96.09.5.01,1.08.02,1.66.22,1.25.41,1.89,1.57,1.66,3.02-.2,1.33-1.09,2.75-2.33,2.76-1.33.01-2.29.22-3.14.41h-.05c-.17.05-.34.09-.5.12-.34.07-.6.28-.71.57-.44,1.14-.75,3.29-.46,5.01.12.72.3,1.43.49,2.19.46,1.86.94,3.78.57,5.8-.2,1.09-.66,2.05-1.1,2.97-.19.4-.37.78-.53,1.16-.94,2.28-1.1,4.88-1.24,7.38-.11,1.84,0,5.01,1.88,5.59.2.06.44.1.7.13.39.06.83.12,1.27.29,1.12.42,2.04,1.62,1.64,2.89-.15.48-.59.8-1.09.8-.36,0-.71-.18-.92-.47ZM114.57,12.55h-.23s-.37-3.64-.37-3.64c-.03-.33-.26-.61-.54-.68-.37-.09-.72.11-.84.47-.38,1.17-1.79,3.4-2.51,4.24-2.06,2.39-3.01,4.82-3.2,8.14-.1,1.73-1.29,3.57-2.67,5.71-1.28,1.97-2.73,4.21-3.71,6.94-1.06,2.95-3.03,4.88-4.62,6.24-4.04,3.43-4.7,5.69-4.7,9.77,0,2.81-.78,3.54-.93,3.65-.97.73-2.4.75-3.38.04-.86-.62-1.26-1.87-.97-3.04.26-1.04,1-1.74,1.98-1.86h.06s.06.02.06.02c.25.1.52.05.71-.14.2-.2.26-.49.15-.75-.05-.12-.21-.47-.94-.44-1.54.07-2.75,1.07-3.22,2.67-.43,1.47-.17,3.47,1.41,4.59,1.46,1.04,3.48,1.02,4.92-.06.95-.71,1.45-2.34,1.45-4.69,0-3.6.4-5.52,4.24-8.78,2.55-2.17,4.09-4.26,5.01-6.78.93-2.59,2.34-4.76,3.58-6.68,1.48-2.29,2.76-4.27,2.88-6.34.17-3.01,1.03-5.22,2.89-7.37.39-.45.94-1.24,1.45-2.07l.38-.62.15,1.46c.08.78.77,1.36,1.53,1.3.54-.05,1.32.34,1.92.95.17.17.34.36.52.56.66.73,1.41,1.57,2.48,1.87.48.14.96.15,1.42.16.41,0,.81.02,1.14.13.19.06.41.18.46.59.07.56-.08,1.49-.64,1.69h-.08c-1.45.04-2.52.28-3.41.47-.36.08-.69.15-1.02.2-.39.06-.74.29-1.03.7-.94,1.3-1.42,4.49-1.02,6.83.13.79.33,1.57.52,2.33.44,1.75.85,3.4.55,5.03-.16.86-.55,1.67-.96,2.52-.19.4-.39.82-.57,1.24-1.06,2.56-1.23,5.43-1.37,7.96-.31,5.24,1.54,6.92,3.15,7.4.33.1.65.15.96.19.32.05.63.09.89.19.29.11.56.38.58.59v.05s-.01.05-.01.05c-.06.2-.03.41.09.57.12.17.31.27.52.27.28,0,.54-.19.62-.46.32-.99-.43-1.93-1.34-2.28-.4-.15-.79-.21-1.17-.26-.27-.04-.53-.08-.77-.15-2.21-.67-2.35-4.1-2.23-6.08.15-2.55.3-5.18,1.28-7.54.16-.39.35-.78.54-1.18.43-.89.87-1.82,1.06-2.85.35-1.91-.11-3.78-.56-5.59-.18-.73-.37-1.49-.5-2.23-.31-1.81.02-4.06.48-5.27.17-.44.57-.77,1.08-.87.16-.03.33-.07.5-.11h.05c.87-.2,1.86-.42,3.24-.43.92,0,1.68-1.22,1.85-2.34.19-1.2-.32-2.15-1.33-2.48-.52-.17-1.03-.18-1.52-.19-.39,0-.76-.02-1.08-.11-.72-.2-1.28-.83-1.87-1.49-.18-.2-.37-.41-.56-.6-.83-.85-1.85-1.35-2.74-1.35-.04,0-.07,0-.11,0Z"></path><path class="cls-1" d="M93.31,56.31c0,.49.41.88.89.88h.01l12.56-.21c1.01-.02,1.82-.72,1.97-1.72.15-1-.41-1.92-1.37-2.24-.79-.26-1.74-.48-2.83-.64.2-1.15,1.79-1.67,2.68-2.98.8-1.17,1.19-2.8,1.03-4.19l.46-.58c.21-.25.62-.16.68.16,0,.02.43,2.21.61,3.3.6,3.59,1.76,7.68,1.81,7.85.13.46.61.75,1.1.61.48-.14.75-.63.61-1.1-.01-.04-1.19-4.17-1.77-7.66-.34-1.99-.55-2.99-.62-3.36l-.57-6.12c-.04-.49-.48-.85-.97-.81-.49.05-.85.48-.8.98l.39,4.22c-.52-.04-1.02.1-1.44.39-.34-1.06-.91-2.09-2.16-2.9-.41-.27-.97-.15-1.23.27-.27.41-.15.97.26,1.23,1.23.8,1.47,1.91,1.77,3.32,0,0-.05,2.48-.66,3.37-.71,1.06-3.22,2.06-2.99,4.38.07.7.61,1.26,1.31,1.35,1.08.15,2,.35,2.74.6.05.02.2.07.17.27-.04.2-.18.2-.24.2l-12.56.21c-.49,0-.89.42-.88.91Z"></path><path class="cls-1" d="M93.06,56.31c0-.3.11-.59.32-.81.21-.22.5-.34.8-.35l12.56-.21c-.73-.24-1.63-.44-2.69-.59-.81-.11-1.43-.76-1.52-1.57-.18-1.75,1.07-2.78,2.07-3.61.39-.33.77-.64.96-.93.46-.67.6-2.51.61-3.21-.29-1.39-.51-2.39-1.66-3.13-.53-.34-.68-1.05-.33-1.57.17-.26.42-.44.72-.5.3-.06.6,0,.85.16,1.29.84,1.86,1.91,2.16,2.73.32-.17.67-.26,1.03-.27l-.37-3.94c-.03-.3.06-.6.25-.84.19-.23.47-.38.78-.41.63-.06,1.18.41,1.24,1.03l.56,6.09.03.16c.09.47.29,1.45.59,3.2.56,3.39,1.71,7.45,1.76,7.63.08.29.05.6-.1.86-.15.27-.39.46-.69.55-.3.08-.61.05-.87-.1-.26-.15-.46-.4-.53-.67-.01-.04-1.2-4.17-1.82-7.89-.18-1.09-.59-3.22-.61-3.29-.01-.07-.07-.1-.1-.1-.02,0-.1-.02-.15.05l-.4.5c.14,1.44-.27,3.06-1.08,4.25-.41.6-.96,1.05-1.44,1.44-.5.41-.95.77-1.13,1.21.99.16,1.86.36,2.59.61,1.07.36,1.7,1.39,1.53,2.51-.17,1.11-1.08,1.91-2.21,1.93l-12.58.21c-.62,0-1.13-.5-1.14-1.12ZM109.19,44.26c.24.06.41.24.46.47.01.04.44,2.26.61,3.32.61,3.69,1.79,7.79,1.81,7.83.04.16.15.3.3.38.15.09.33.11.5.06.17-.05.31-.16.39-.31.08-.15.1-.32.05-.49-.12-.43-1.21-4.32-1.77-7.68-.3-1.75-.49-2.72-.59-3.19l-.6-6.31c-.03-.35-.35-.62-.7-.59-.36.04-.62.35-.58.71l.42,4.51-.29-.02c-.46-.04-.9.08-1.27.35l-.27.2-.1-.32c-.4-1.26-1.04-2.11-2.06-2.77-.14-.09-.32-.12-.48-.09-.17.04-.32.14-.41.29-.19.3-.11.7.19.89,1.32.86,1.58,2.07,1.88,3.47v.03s0,.03,0,.03c0,.1-.06,2.56-.7,3.5-.23.35-.63.68-1.05,1.03-.96.8-2.04,1.7-1.89,3.19.06.59.51,1.05,1.09,1.13,1.09.15,2.02.35,2.78.61.37.12.35.44.34.54-.02.14-.12.37-.48.4l-12.56.21c-.17,0-.33.07-.45.2-.12.12-.18.29-.18.46h0c0,.36.3.64.66.64l12.56-.21c.89-.02,1.6-.64,1.74-1.51.14-.88-.36-1.69-1.2-1.97-.78-.26-1.71-.47-2.78-.63l-.25-.04.04-.25c.13-.74.73-1.23,1.37-1.75.48-.39.98-.79,1.34-1.33.76-1.1,1.15-2.68.99-4.02v-.1s.51-.66.51-.66c.12-.15.3-.23.49-.23.05,0,.11,0,.16.02Z"></path><path class="cls-1" d="M104.16.16c-17.88,0-32.42,14.54-32.42,32.42s14.54,32.42,32.42,32.42,32.42-14.54,32.42-32.42S122.04.16,104.16.16ZM134.62,32.58c0,7.71-2.89,14.76-7.63,20.13L84.03,9.75c5.37-4.74,12.42-7.63,20.13-7.63,16.79,0,30.46,13.66,30.46,30.46ZM73.71,32.58c0-7.71,2.89-14.76,7.63-20.13l42.96,42.96c-5.37,4.74-12.42,7.63-20.13,7.63-16.79,0-30.46-13.66-30.46-30.46Z"></path><path class="cls-1" d="M104.16,65.16c-17.96,0-32.58-14.62-32.58-32.58S86.2,0,104.16,0s32.58,14.62,32.58,32.58-14.62,32.58-32.58,32.58ZM104.16.31c-17.79,0-32.27,14.47-32.27,32.27s14.47,32.27,32.27,32.27,32.27-14.47,32.27-32.27S121.95.31,104.16.31ZM104.16,63.19c-16.88,0-30.61-13.73-30.61-30.61,0-7.45,2.72-14.63,7.67-20.24l.11-.13.12.12,43.08,43.08-.13.11c-5.6,4.95-12.79,7.67-20.24,7.67ZM81.34,12.68c-4.82,5.52-7.48,12.59-7.48,19.9,0,16.71,13.59,30.3,30.3,30.3,7.32,0,14.38-2.66,19.9-7.48L81.34,12.68ZM127,52.94l-.12-.12L83.8,9.75l.13-.11c5.6-4.95,12.79-7.67,20.24-7.67,16.88,0,30.61,13.73,30.61,30.61,0,7.45-2.72,14.63-7.67,20.24l-.11.13ZM84.26,9.76l42.72,42.72c4.82-5.53,7.48-12.59,7.48-19.9,0-16.71-13.59-30.3-30.3-30.3-7.32,0-14.38,2.66-19.9,7.48Z"></path><path class="cls-1" d="M191.97,28.1c-.87,0-1.71.11-2.51.31l-3.34-9.07,2.98-1c.61-.2.94-.86.73-1.47-.2-.61-.86-.94-1.47-.73l-4.12,1.38s0,0-.02,0c0,0-.01,0-.02,0-.01,0-.03.01-.04.02-.02,0-.04.02-.06.02-.02,0-.03.02-.05.03-.02,0-.04.02-.05.03-.02,0-.03.02-.05.03-.02.01-.03.02-.05.03-.02.01-.03.02-.04.04-.01.01-.03.02-.04.04-.01.01-.03.03-.04.04-.01.01-.03.03-.04.04-.01.01-.03.03-.04.04-.01.01-.02.03-.03.04-.01.02-.02.03-.03.05-.01.02-.02.03-.03.05,0,.02-.02.03-.03.05,0,.02-.02.03-.03.05,0,.02-.02.03-.02.05,0,.02-.01.03-.02.05,0,.02-.01.03-.02.05,0,.02-.01.04-.02.05,0,.02,0,.04-.01.05,0,.02,0,.04-.01.06,0,.02,0,.04,0,.06,0,.02,0,.04,0,.06,0,.02,0,.04,0,.06,0,.02,0,.04,0,.06,0,.02,0,.04,0,.06,0,.02,0,.04,0,.05,0,.02,0,.04.01.06,0,.02,0,.04.01.05,0,.02.01.04.02.06,0,.01,0,.03.01.04,0,0,0,.01,0,.02,0,0,0,0,0,.01l1.56,4.24-14.43,2.58-1.33-3.56h1.28c.64,0,1.16-.52,1.16-1.16s-.52-1.16-1.16-1.16h-5.6c-.64,0-1.16.52-1.16,1.16s.52,1.16,1.16,1.16h1.84l1.73,4.62-2.9,3.2c-1.73-1.25-3.85-1.99-6.15-1.99-5.79,0-10.5,4.71-10.5,10.5s4.71,10.5,10.5,10.5c5.11,0,9.39-3.68,10.31-8.52l2.25.18c.47,1.18,1.62,2.01,2.96,2.01,1.76,0,3.19-1.43,3.19-3.19,0-.7-.22-1.34-.6-1.87l8.57-11.41,1.07,2.92c-3.44,1.73-5.8,5.29-5.8,9.39,0,5.79,4.71,10.5,10.5,10.5s10.5-4.71,10.5-10.5-4.71-10.5-10.5-10.5ZM165.81,33.39c1.07,1.29,1.75,2.91,1.86,4.68l-5.7-.45,3.84-4.24ZM167.39,31.65l2.09-2.31,3.07,8.23c-.2.25-.36.53-.48.84l-2.06-.16c-.08-2.53-1.06-4.83-2.63-6.6ZM175.05,36.38c-.15,0-.3.01-.45.03l-3.12-8.36,12.12-2.17-7.93,10.56c-.2-.04-.41-.06-.63-.06ZM159.52,46.77c-4.51,0-8.17-3.67-8.17-8.17s3.67-8.17,8.17-8.17c1.69,0,3.27.52,4.57,1.4l-5.43,5.99s-.01.02-.02.02c-.02.02-.03.04-.04.05,0,.01-.02.03-.03.04-.01.02-.02.04-.04.05,0,.01-.02.03-.03.04,0,.02-.02.04-.03.05,0,.02-.02.03-.02.05,0,.02-.01.04-.02.05,0,.02-.01.04-.02.06,0,.02-.01.03-.02.05,0,.02,0,.04-.01.06,0,.02,0,.03,0,.05,0,.02,0,.04,0,.07,0,.01,0,.02,0,.03,0,0,0,.01,0,.02,0,.02,0,.04,0,.06,0,.02,0,.04,0,.05,0,.02,0,.04,0,.05,0,.02,0,.04,0,.06,0,.02,0,.03,0,.04,0,.02,0,.04.01.07,0,.01,0,.03.01.04,0,.02.01.04.02.06,0,.02.01.03.02.05,0,.02.01.04.02.05,0,.02.02.04.03.06,0,.01.01.03.02.04.01.02.02.04.03.05,0,.01.02.03.03.04.01.02.02.03.04.05.01.01.02.03.04.04.01.01.02.03.04.04.02.02.03.03.05.05,0,0,0,0,.01.01,0,0,.02.01.03.02.02.01.03.03.05.04.01.01.03.02.04.03.02.01.03.02.05.03.02.01.03.02.05.03.01,0,.03.02.04.02.02,0,.04.02.06.03.01,0,.03.01.04.02.02,0,.05.02.07.02.01,0,.02,0,.03.01.07.02.15.03.22.04,0,0,0,0,0,0l8.07.63c-.82,3.65-4.08,6.38-7.98,6.38ZM191.97,46.77c-4.51,0-8.17-3.67-8.17-8.17,0-3.1,1.74-5.81,4.29-7.19l2.79,7.59c.17.47.62.76,1.09.76.13,0,.27-.02.4-.07.6-.22.91-.89.69-1.49l-2.8-7.59c.55-.12,1.12-.18,1.7-.18,4.51,0,8.17,3.67,8.17,8.17s-3.67,8.17-8.17,8.17Z"></path><path class="cls-1" d="M175.74.16c-17.88,0-32.42,14.54-32.42,32.42s14.54,32.42,32.42,32.42,32.42-14.54,32.42-32.42S193.62.16,175.74.16ZM206.2,32.58c0,7.71-2.89,14.76-7.63,20.13l-42.96-42.96c5.37-4.74,12.42-7.63,20.13-7.63,16.79,0,30.46,13.66,30.46,30.46ZM145.29,32.58c0-7.71,2.89-14.76,7.63-20.13l42.96,42.96c-5.37,4.74-12.42,7.63-20.13,7.63-16.79,0-30.46-13.66-30.46-30.46Z"></path><path class="cls-1" d="M175.74,65.16c-17.96,0-32.58-14.62-32.58-32.58S157.78,0,175.74,0s32.58,14.62,32.58,32.58-14.62,32.58-32.58,32.58ZM175.74.31c-17.79,0-32.27,14.47-32.27,32.27s14.47,32.27,32.27,32.27,32.27-14.47,32.27-32.27S193.53.31,175.74.31ZM175.74,63.19c-16.88,0-30.61-13.73-30.61-30.61,0-7.45,2.72-14.63,7.67-20.24l.11-.13.12.12,43.08,43.08-.13.11c-5.6,4.95-12.79,7.67-20.24,7.67ZM152.92,12.68c-4.82,5.53-7.48,12.59-7.48,19.9,0,16.71,13.59,30.3,30.3,30.3,7.32,0,14.38-2.66,19.9-7.48l-42.72-42.72ZM198.58,52.94l-.12-.12-43.08-43.08.13-.11c5.6-4.95,12.79-7.67,20.24-7.67,16.88,0,30.61,13.73,30.61,30.61,0,7.45-2.72,14.63-7.67,20.24l-.11.13ZM155.84,9.76l42.72,42.72c4.82-5.53,7.48-12.59,7.48-19.9,0-16.71-13.59-30.3-30.3-30.3-7.32,0-14.38,2.66-19.9,7.48Z"></path><path class="cls-1" d="M247.32,51.43c2.39,0,4.72-.44,6.88-1.29.4-.15.79-.32,1.17-.5,1.94-.92,3.72-2.17,5.28-3.73,3.14-3.14,5.04-7.2,5.44-11.57.05-.58.08-1.17.08-1.76,0-1.38-.15-2.74-.44-4.06-.76-3.49-2.5-6.69-5.09-9.27-3.56-3.56-8.3-5.52-13.33-5.52s-9.77,1.96-13.33,5.52c-3.56,3.56-5.52,8.3-5.52,13.33s1.96,9.77,5.52,13.33,8.3,5.52,13.33,5.52ZM247.32,15.76c.25,0,.5,0,.76.02l-1.53,1.76c-4.03,0-7.09,1.87-8.12,2.59l-2.15-.24c3.06-2.67,6.94-4.13,11.04-4.13ZM259.22,20.69c2.03,2.03,3.47,4.48,4.25,7.16l-2.08-.62c-.45-1.4-1.44-2.94-2.93-4.58-1.05-1.16-1.99-1.96-2.21-2.15l-.26-2.34c1.16.7,2.25,1.55,3.23,2.53ZM258.28,45.34l-7.53-.42-1.73-4.58,4.67-5.16c.39-.1,4.3-1.13,5.92-1.59l2.85,6.33c-.81,1.66-1.9,3.2-3.24,4.54-.3.3-.61.59-.93.87ZM238.57,20.81c.63-.47,3.79-2.65,8-2.64l3.86,4.09s-.08.1-.09.16l-1.46,6.42s0,.09,0,.14l-6.13,1.33s0,0,0,0l-5.36-4.47s-.08-.05-.12-.06l1.3-4.97ZM255.92,21.04c.68.58,4.11,3.64,4.94,6.62,0,0,0,0,0,0l-1.33,5.3c-1.33.38-4.64,1.25-5.7,1.53l-4.46-5.36c.05-.04.09-.1.11-.17l1.46-6.42c.01-.05,0-.1,0-.15l4.98-1.36ZM237.37,40.66h0s.1-.01.14-.03l4.45-2.27c.07-.04.12-.1.15-.17l6.31,2.34,1.74,4.61-4.69,4.17c-2.95-.32-5.73-1.41-8.1-3.16v-5.48ZM236.92,26.23s.04.07.07.09l5.35,4.46-.5,6.99c-.05,0-.11,0-.16.03l-4.45,2.27c-.05.03-.1.07-.13.12l-4.72-2.84c-.74-3.41-.22-7.2.04-8.68l4.5-2.44ZM231.85,28.25c-.24,1.22-.9,5.25-.13,9.01l-.43.42c-.52-1.63-.79-3.35-.79-5.11,0-2.06.37-4.05,1.07-5.92l.28,1.6Z"></path><path class="cls-1" d="M247.32.16c-17.88,0-32.42,14.54-32.42,32.42s14.54,32.42,32.42,32.42,32.42-14.54,32.42-32.42S265.2.16,247.32.16ZM277.78,32.58c0,7.71-2.89,14.76-7.63,20.13l-42.96-42.96c5.37-4.74,12.42-7.63,20.13-7.63,16.79,0,30.46,13.66,30.46,30.46ZM216.87,32.58c0-7.71,2.89-14.76,7.63-20.13l42.96,42.96c-5.37,4.74-12.42,7.63-20.13,7.63-16.79,0-30.46-13.66-30.46-30.46Z"></path><path class="cls-1" d="M247.32,65.16c-17.96,0-32.58-14.62-32.58-32.58S229.36,0,247.32,0s32.58,14.62,32.58,32.58-14.62,32.58-32.58,32.58ZM247.32.31c-17.79,0-32.27,14.47-32.27,32.27s14.47,32.27,32.27,32.27,32.27-14.47,32.27-32.27S265.12.31,247.32.31ZM247.32,63.19c-16.88,0-30.61-13.73-30.61-30.61,0-7.45,2.72-14.63,7.67-20.24l.11-.13.12.12,43.08,43.08-.13.11c-5.6,4.95-12.79,7.67-20.24,7.67ZM224.51,12.68c-4.82,5.53-7.48,12.59-7.48,19.9,0,16.71,13.59,30.3,30.3,30.3,7.32,0,14.38-2.66,19.9-7.48l-42.72-42.72ZM270.16,52.94l-.12-.12-43.08-43.08.13-.11c5.6-4.95,12.79-7.67,20.24-7.67,16.88,0,30.61,13.73,30.61,30.61,0,7.45-2.72,14.63-7.67,20.24l-.11.13ZM227.42,9.76l42.72,42.72c4.82-5.52,7.48-12.59,7.48-19.9,0-16.71-13.59-30.3-30.3-30.3-7.32,0-14.38,2.66-19.9,7.48Z"></path></g></svg>